<svg width="25" height="24" viewBox="0 0 25 24" fill="none" xmlns="http://www.w3.org/2000/svg">
<mask id="mask0_913_1506" style="mask-type:alpha" maskUnits="userSpaceOnUse" x="0" y="0" width="25" height="24">
<rect x="0.5" width="24" height="24" fill="#D9D9D9"/>
</mask>
<g mask="url(#mask0_913_1506)">
<path d="M3.0578 17.8193L1.83655 16.9328L6.5288 9.42302L9.5288 12.923L13.5095 6.46152L15.898 10.0463C15.6109 10.0693 15.3414 10.1087 15.0895 10.1645C14.8375 10.2202 14.5865 10.2954 14.3365 10.3903L13.5655 9.23852L9.7463 15.452L6.7213 11.927L3.0578 17.8193ZM22.075 22.6443L18.7963 19.3845C18.4821 19.6115 18.1353 19.7834 17.7558 19.9C17.3763 20.0167 16.9827 20.075 16.575 20.075C15.4597 20.075 14.5142 19.6872 13.7385 18.9115C12.9629 18.1359 12.575 17.1904 12.575 16.075C12.575 14.9597 12.9629 14.0142 13.7385 13.2385C14.5142 12.4629 15.4597 12.075 16.575 12.075C17.6904 12.075 18.6359 12.4629 19.4115 13.2385C20.1872 14.0142 20.575 14.9597 20.575 16.075C20.575 16.4892 20.5151 16.8876 20.3953 17.2703C20.2753 17.6529 20.0986 18.0064 19.8653 18.3308L23.1443 21.575L22.075 22.6443ZM16.575 18.575C17.275 18.575 17.8667 18.3334 18.35 17.85C18.8334 17.3667 19.075 16.775 19.075 16.075C19.075 15.375 18.8334 14.7834 18.35 14.3C17.8667 13.8167 17.275 13.575 16.575 13.575C15.875 13.575 15.2834 13.8167 14.8 14.3C14.3167 14.7834 14.075 15.375 14.075 16.075C14.075 16.775 14.3167 17.3667 14.8 17.85C15.2834 18.3334 15.875 18.575 16.575 18.575ZM18.6078 10.402C18.368 10.307 18.1221 10.2291 17.8703 10.1683C17.6183 10.1074 17.357 10.0687 17.0865 10.052L21.9423 2.35577L23.1635 3.24227L18.6078 10.402Z" fill="white"/>
</g>
</svg>
