<svg width="24" height="24" viewBox="0 0 24 24" fill="none" xmlns="http://www.w3.org/2000/svg">
<mask id="mask0_874_193" style="mask-type:alpha" maskUnits="userSpaceOnUse" x="0" y="0" width="24" height="24">
<rect width="24" height="24" fill="#D9D9D9"/>
</mask>
<g mask="url(#mask0_874_193)">
<path d="M12.0017 21.5C10.6877 21.5 9.45267 21.2507 8.2965 20.752C7.14033 20.2533 6.13467 19.5766 5.2795 18.7218C4.42433 17.8669 3.74725 16.8617 3.24825 15.706C2.74942 14.5503 2.5 13.3156 2.5 12.0017C2.5 10.6877 2.74942 9.45267 3.24825 8.2965C3.74692 7.14033 4.42375 6.13467 5.27875 5.2795C6.13375 4.42433 7.13917 3.74725 8.295 3.24825C9.45083 2.74942 10.6858 2.5 12 2.5H12.75V10.7078C12.9858 10.8526 13.1698 11.0332 13.302 11.2498C13.434 11.4663 13.5 11.7168 13.5 12.0013C13.5 12.4094 13.3523 12.7613 13.0568 13.0568C12.7613 13.3523 12.409 13.5 12 13.5C11.591 13.5 11.2388 13.3523 10.9433 13.0568C10.6478 12.7613 10.5 12.4097 10.5 12.0022C10.5 11.7182 10.566 11.4652 10.698 11.243C10.8302 11.0208 11.0142 10.8424 11.25 10.7078V8.0865C10.3192 8.26217 9.54483 8.71375 8.927 9.44125C8.309 10.1689 8 11.0218 8 12C8 13.1 8.39167 14.0417 9.175 14.825C9.95833 15.6083 10.9 16 12 16C13.1 16 14.0417 15.6083 14.825 14.825C15.6083 14.0417 16 13.1 16 12C16 11.4 15.8792 10.8458 15.6375 10.3375C15.3958 9.82917 15.0667 9.38333 14.65 9L15.7193 7.93075C16.2641 8.43592 16.6971 9.03725 17.0182 9.73475C17.3394 10.4324 17.5 11.1875 17.5 12C17.5 13.5278 16.9655 14.8264 15.8965 15.8957C14.8275 16.9652 13.5294 17.5 12.0022 17.5C10.4751 17.5 9.17625 16.9652 8.10575 15.8957C7.03525 14.8264 6.5 13.5278 6.5 12C6.5 10.5962 6.95417 9.38175 7.8625 8.35675C8.77083 7.33175 9.9 6.73142 11.25 6.55575V4.03075C9.209 4.21658 7.49042 5.06758 6.09425 6.58375C4.69808 8.09975 4 9.90517 4 12C4 14.2333 4.775 16.125 6.325 17.675C7.875 19.225 9.76667 20 12 20C14.2333 20 16.125 19.225 17.675 17.675C19.225 16.125 20 14.2333 20 12C20 10.85 19.775 9.775 19.325 8.775C18.875 7.775 18.2583 6.90833 17.475 6.175L18.5443 5.10575C19.4557 5.97758 20.1763 7.0035 20.7057 8.1835C21.2352 9.36367 21.5 10.6349 21.5 11.9973C21.5 13.3119 21.2507 14.5473 20.752 15.7035C20.2533 16.8597 19.5766 17.8653 18.7218 18.7205C17.8669 19.5757 16.8617 20.2528 15.706 20.7518C14.5503 21.2506 13.3156 21.5 12.0017 21.5Z" fill="white"/>
</g>
</svg>
