<svg width="25" height="24" viewBox="0 0 25 24" fill="none" xmlns="http://www.w3.org/2000/svg">
<mask id="mask0_913_1520" style="mask-type:alpha" maskUnits="userSpaceOnUse" x="0" y="0" width="25" height="24">
<rect x="0.5" width="24" height="24" fill="#D9D9D9"/>
</mask>
<g mask="url(#mask0_913_1520)">
<path d="M7.44225 20.4615L7.25 18.8385L9.9655 11.354C10.1577 11.5295 10.3628 11.674 10.5808 11.7875C10.7988 11.901 11.0295 11.9897 11.273 12.0538L8.6385 19.3153L7.44225 20.4615ZM17.5577 20.4615L16.3615 19.3153L13.727 12.0538C13.9705 11.9897 14.2013 11.901 14.4193 11.7875C14.6373 11.674 14.8423 11.5295 15.0345 11.354L17.75 18.8385L17.5577 20.4615ZM12.5 10.75C11.7372 10.75 11.0882 10.4823 10.553 9.947C10.0177 9.41183 9.75 8.76283 9.75 8C9.75 7.35 9.9455 6.7885 10.3365 6.3155C10.7275 5.84233 11.1987 5.53458 11.75 5.39225V3H13.25V5.39225C13.8013 5.53458 14.2725 5.84233 14.6635 6.3155C15.0545 6.7885 15.25 7.35 15.25 8C15.25 8.76283 14.9823 9.41183 14.447 9.947C13.9118 10.4823 13.2628 10.75 12.5 10.75ZM12.5 9.25C12.8475 9.25 13.1427 9.1285 13.3855 8.8855C13.6285 8.64267 13.75 8.3475 13.75 8C13.75 7.6525 13.6285 7.35733 13.3855 7.1145C13.1427 6.8715 12.8475 6.75 12.5 6.75C12.1525 6.75 11.8573 6.8715 11.6145 7.1145C11.3715 7.35733 11.25 7.6525 11.25 8C11.25 8.3475 11.3715 8.64267 11.6145 8.8855C11.8573 9.1285 12.1525 9.25 12.5 9.25Z" fill="white"/>
</g>
</svg>
