<svg width="6" height="14" viewBox="0 0 6 14" fill="none" xmlns="http://www.w3.org/2000/svg">
<path d="M2.56925 13.192C2.25992 13.192 2.00392 13.1493 1.80125 13.064C1.59858 12.9893 1.43325 12.888 1.30525 12.76C1.18792 12.6213 1.10258 12.472 1.04925 12.312C0.995917 12.1413 0.96925 11.976 0.96925 11.816C0.96925 11.688 0.98525 11.5333 1.01725 11.352C1.04925 11.1707 1.08125 11.0213 1.11325 10.904L2.29725 6.152H1.01725L1.27325 5.144L5.20925 4.408L3.36925 11.72L3.65725 11.848L5.03325 10.024L5.64125 10.376L4.77725 11.736C4.58525 12.0347 4.39325 12.28 4.20125 12.472C4.00925 12.6533 3.81725 12.7973 3.62525 12.904C3.44392 13.0107 3.26258 13.0853 3.08125 13.128C2.89992 13.1707 2.72925 13.192 2.56925 13.192ZM4.36125 3.352C3.94525 3.352 3.62525 3.25067 3.40125 3.048C3.17725 2.83467 3.06525 2.57333 3.06525 2.264C3.06525 2.2 3.06525 2.13067 3.06525 2.056C3.07592 1.97067 3.09192 1.896 3.11325 1.832C3.19858 1.46933 3.38525 1.18667 3.67325 0.983999C3.96125 0.781333 4.30258 0.679999 4.69725 0.679999C5.11325 0.679999 5.43325 0.786666 5.65725 0.999999C5.88125 1.21333 5.99325 1.47467 5.99325 1.784C5.99325 1.83733 5.98792 1.90667 5.97725 1.992C5.97725 2.06667 5.96658 2.136 5.94525 2.2C5.85992 2.56267 5.67325 2.84533 5.38525 3.048C5.10792 3.25067 4.76658 3.352 4.36125 3.352Z" fill="#FE6600"/>
</svg>
