<svg width="60" height="60" viewBox="0 0 60 60" fill="none" xmlns="http://www.w3.org/2000/svg">
<mask id="mask0_1253_1075" style="mask-type:alpha" maskUnits="userSpaceOnUse" x="0" y="0" width="60" height="60">
<rect width="60" height="60" fill="#D9D9D9"/>
</mask>
<g mask="url(#mask0_1253_1075)">
<path d="M17.5 51.539C14.7146 51.539 12.3517 50.5686 10.4113 48.6277C8.47042 46.6869 7.5 44.324 7.5 41.539C7.5 38.7535 8.47042 36.3904 10.4113 34.4496C12.3517 32.5092 14.7146 31.539 17.5 31.539C20.2854 31.539 22.6483 32.5092 24.5888 34.4496C26.5296 36.3904 27.5 38.7535 27.5 41.539C27.5 44.324 26.5296 46.6869 24.5888 48.6277C22.6483 50.5686 20.2854 51.539 17.5 51.539ZM51.1156 50.3846L35.4038 34.6733C34.955 35.0579 34.4181 35.4265 33.7931 35.779C33.1681 36.1315 32.5833 36.404 32.0387 36.5965C31.8592 36.2469 31.6644 35.9031 31.4544 35.5652C31.2444 35.2269 31.0288 34.92 30.8075 34.6446C32.9038 33.7725 34.6394 32.3831 36.0144 30.4765C37.3894 28.5694 38.0769 26.3273 38.0769 23.7502C38.0769 20.4648 36.9271 17.6723 34.6275 15.3727C32.3279 13.0731 29.5354 11.9233 26.25 11.9233C22.9646 11.9233 20.1721 13.0731 17.8725 15.3727C15.5729 17.6723 14.4231 20.4648 14.4231 23.7502C14.4231 24.2565 14.4656 24.7685 14.5506 25.2865C14.6356 25.804 14.7308 26.2998 14.8363 26.774C14.4713 26.7935 14.065 26.8721 13.6175 27.0096C13.1704 27.1475 12.7692 27.2871 12.4137 27.4283C12.2662 26.9058 12.1475 26.3273 12.0575 25.6927C11.9679 25.0581 11.9231 24.4106 11.9231 23.7502C11.9231 19.7535 13.3117 16.3665 16.0888 13.589C18.8663 10.8119 22.2533 9.42334 26.25 9.42334C30.2467 9.42334 33.6338 10.8119 36.4113 13.589C39.1883 16.3665 40.5769 19.7535 40.5769 23.7502C40.5769 25.5419 40.2635 27.2319 39.6369 28.8202C39.0102 30.4081 38.2129 31.7885 37.245 32.9615L52.8844 48.6158L51.1156 50.3846ZM13.1106 47.2933L17.5 42.904L21.875 47.2933L23.255 45.9283L18.8656 41.539L23.255 37.149L21.8894 35.784L17.5 40.1733L13.1106 35.784L11.745 37.149L16.1344 41.539L11.745 45.9283L13.1106 47.2933Z" fill="#717171"/>
</g>
</svg>
