<svg width="30" height="30" viewBox="0 0 30 30" fill="none" xmlns="http://www.w3.org/2000/svg">
<g clip-path="url(#clip0_894_474)">
<path d="M15 30C23.2843 30 30 23.2843 30 15C30 6.71573 23.2843 0 15 0C6.71573 0 0 6.71573 0 15C0 23.2843 6.71573 30 15 30Z" fill="url(#paint0_linear_894_474)"/>
<path fill-rule="evenodd" clip-rule="evenodd" d="M6.79173 14.8417C11.1645 12.9365 14.0804 11.6805 15.5394 11.0737C19.7051 9.34105 20.5706 9.04007 21.1348 9.03014C21.2589 9.02795 21.5364 9.0587 21.7161 9.20453C21.8678 9.32767 21.9096 9.494 21.9296 9.61075C21.9495 9.72749 21.9744 9.99344 21.9546 10.2012C21.7289 12.5731 20.7521 18.329 20.2552 20.9855C20.0449 22.1095 19.6309 22.4864 19.2301 22.5233C18.359 22.6035 17.6976 21.9477 16.8539 21.3946C15.5337 20.5292 14.7879 19.9905 13.5064 19.146C12.0254 18.1701 12.9855 17.6337 13.8295 16.7571C14.0503 16.5277 17.8883 13.0367 17.9626 12.72C17.9719 12.6804 17.9805 12.5328 17.8928 12.4548C17.8051 12.3769 17.6757 12.4035 17.5822 12.4247C17.4498 12.4548 15.3408 13.8488 11.2552 16.6067C10.6565 17.0178 10.1143 17.2181 9.62847 17.2076C9.09289 17.196 8.06266 16.9047 7.29678 16.6558C6.35741 16.3504 5.61081 16.189 5.67582 15.6704C5.70968 15.4003 6.08165 15.1241 6.79173 14.8417Z" fill="white"/>
</g>
<defs>
<linearGradient id="paint0_linear_894_474" x1="15" y1="0" x2="15" y2="29.7775" gradientUnits="userSpaceOnUse">
<stop stop-color="#2AABEE"/>
<stop offset="1" stop-color="#229ED9"/>
</linearGradient>
<clipPath id="clip0_894_474">
<rect width="30" height="30" fill="white"/>
</clipPath>
</defs>
</svg>
