<svg width="30" height="30" viewBox="0 0 30 30" fill="none" xmlns="http://www.w3.org/2000/svg">
<path d="M30 25.6094C30.0001 26.186 29.8872 26.7569 29.6678 27.2896C29.4483 27.8222 29.1266 28.3063 28.7211 28.714C28.3155 29.1217 27.834 29.4451 27.3041 29.6658C26.7741 29.8864 26.2061 30 25.6325 30H4.36903C3.79529 30.0002 3.22713 29.8868 2.69701 29.6662C2.1669 29.4457 1.68521 29.1223 1.27948 28.7145C0.873749 28.3068 0.55192 27.8227 0.332382 27.2899C0.112844 26.7571 -0.000100631 26.1861 6.11605e-07 25.6094V4.39213C-0.000303009 3.81546 0.112441 3.24438 0.331792 2.71151C0.551143 2.17865 0.872802 1.69444 1.27839 1.28657C1.68398 0.878689 2.16555 0.555131 2.69559 0.334377C3.22563 0.113623 3.79375 1.92466e-07 4.36749 2.73214e-07H25.631C26.2046 -0.000203152 26.7727 0.113193 27.3028 0.33371C27.8329 0.554227 28.3145 0.877546 28.7202 1.2852C29.126 1.69285 29.4478 2.17685 29.6674 2.70954C29.887 3.24224 30 3.8132 30 4.38981V25.6094Z" fill="#F7931E"/>
<path d="M14.986 4.48352C13.9212 4.48337 12.8802 4.8006 11.9948 5.39509C11.1093 5.98959 10.4192 6.83465 10.0116 7.8234C9.604 8.81215 9.49727 9.90018 9.70492 10.9499C9.91256 11.9996 10.4252 12.9639 11.1781 13.7207C11.931 14.4776 12.8903 14.993 13.9346 15.2019C14.979 15.4107 16.0615 15.3036 17.0453 14.8941C18.0291 14.4845 18.8699 13.791 19.4615 12.9011C20.0531 12.0112 20.3689 10.965 20.3689 9.8947C20.3689 8.4597 19.8018 7.08346 18.7923 6.06869C17.7829 5.05392 16.4137 4.48373 14.986 4.48352ZM14.986 12.1318C14.5458 12.132 14.1154 12.0009 13.7492 11.7552C13.3831 11.5094 13.0977 11.1601 12.9291 10.7513C12.7606 10.3426 12.7164 9.89275 12.8022 9.45874C12.888 9.02473 13.0999 8.62604 13.4111 8.3131C13.7224 8.00016 14.119 7.78702 14.5507 7.70064C14.9825 7.61425 15.4301 7.65851 15.8368 7.82781C16.2435 7.99711 16.5912 8.28384 16.8358 8.65175C17.0804 9.01966 17.211 9.45221 17.211 9.8947C17.211 10.4879 16.9766 11.0568 16.5593 11.4763C16.1421 11.8958 15.5762 12.1316 14.986 12.1318Z" fill="white"/>
<path d="M16.8831 19.6113C19.0402 19.1699 20.3299 18.1439 20.3985 18.0889C20.5571 17.9711 20.6903 17.8223 20.7903 17.6514C20.8903 17.4806 20.9548 17.2912 20.9802 17.0946C21.0055 16.898 20.991 16.6984 20.9377 16.5075C20.8843 16.3167 20.7931 16.1387 20.6696 15.9842C20.5461 15.8297 20.3928 15.7018 20.2189 15.6083C20.0451 15.5149 19.8542 15.4576 19.6577 15.4401C19.4613 15.4226 19.2634 15.4452 19.0759 15.5065C18.8883 15.5678 18.715 15.6665 18.5664 15.7968C18.5533 15.8076 17.1797 16.8693 14.9092 16.8708C12.6388 16.8724 11.2367 15.8045 11.2236 15.7968C10.9208 15.5526 10.5338 15.4393 10.1479 15.4819C9.76203 15.5244 9.40874 15.7193 9.1658 16.0237C8.92285 16.328 8.81015 16.7169 8.85248 17.1048C8.89482 17.4927 9.08872 17.8478 9.39153 18.092C9.46087 18.1477 10.806 19.2009 13.0217 19.6314L9.93775 22.8721C9.80271 23.0108 9.69631 23.175 9.62469 23.3553C9.55307 23.5355 9.51763 23.7282 9.52043 23.9223C9.52323 24.1164 9.56421 24.308 9.641 24.486C9.71779 24.6641 9.82888 24.8252 9.96786 24.9599C10.1069 25.0947 10.271 25.2004 10.4508 25.2711C10.6307 25.3419 10.8226 25.3761 11.0157 25.3719C11.2088 25.3677 11.3991 25.3252 11.5757 25.2467C11.7523 25.1683 11.9118 25.0555 12.0448 24.9148L14.9139 21.843L18.0726 24.9342C18.3475 25.209 18.7196 25.363 19.1074 25.3623C19.4951 25.3616 19.8667 25.2064 20.1407 24.9306C20.4146 24.6548 20.5686 24.2811 20.5686 23.8914C20.5687 23.5017 20.415 23.1278 20.1411 22.8519L16.8831 19.6113Z" fill="white"/>
</svg>
