<svg width="30" height="30" viewBox="0 0 30 30" fill="none" xmlns="http://www.w3.org/2000/svg">
<path d="M15 30C23.2843 30 30 23.2843 30 15C30 6.71573 23.2843 0 15 0C6.71573 0 0 6.71573 0 15C0 23.2843 6.71573 30 15 30Z" fill="#2AB540"/>
<path d="M5.37754 14.9122C5.37584 16.607 5.82101 18.2723 6.66817 19.7402L5.29688 24.7438L10.4191 23.401C11.8356 24.1724 13.4229 24.5766 15.0359 24.5765C16.9467 24.5765 18.8146 24.01 20.4034 22.9485C21.9922 21.8869 23.2306 20.3782 23.962 18.6129C24.6934 16.8476 24.885 14.9051 24.5124 13.031C24.1399 11.1568 23.2201 9.43524 21.8692 8.08386C20.5183 6.73247 18.797 5.81198 16.923 5.43878C15.049 5.06557 13.1065 5.2564 11.3409 5.98714C9.57536 6.71788 8.06613 7.95572 7.00404 9.54415C5.94194 11.1326 5.37468 13.0003 5.37398 14.9111M8.42855 19.4888L8.23638 19.1851C7.28984 17.677 6.87131 15.8971 7.04657 14.1253C7.22184 12.3534 7.98096 10.69 9.2046 9.39664C10.4282 8.10324 12.047 7.25315 13.8065 6.98001C15.5659 6.70688 17.3662 7.02618 18.9244 7.88773C20.4826 8.74928 21.7102 10.1042 22.4144 11.7396C23.1187 13.3749 23.2594 15.1979 22.8147 16.9219C22.3699 18.646 21.3648 20.1733 19.9573 21.2639C18.5499 22.3545 16.82 22.9464 15.0395 22.9466C13.6015 22.9466 12.19 22.5598 10.9529 21.8268L10.6563 21.6596L7.61597 22.4567L8.42855 19.4888Z" fill="white"/>
<path d="M12.628 10.8743C12.4477 10.4721 12.2579 10.4638 12.0847 10.4567C11.9447 10.4567 11.7834 10.4567 11.622 10.4567C11.4999 10.46 11.3797 10.4884 11.2691 10.5403C11.1585 10.5921 11.0597 10.6662 10.9791 10.758C10.7055 11.0168 10.4889 11.3298 10.3433 11.677C10.1977 12.0243 10.1261 12.3981 10.1333 12.7746C10.1333 13.9609 10.9993 15.1103 11.1191 15.2717C11.2389 15.433 12.7893 17.9478 15.2424 18.9158C17.2816 19.7189 17.6968 19.5599 18.1392 19.5196C18.5817 19.4793 19.5627 18.936 19.7691 18.3725C19.9755 17.809 19.9696 17.3251 19.9103 17.2242C19.851 17.1234 19.6885 17.0629 19.4477 16.9431C19.2069 16.8233 18.0182 16.2385 17.7976 16.1578C17.577 16.0771 17.4156 16.0392 17.2543 16.2764C17.093 16.5137 16.6315 17.0605 16.4904 17.2254C16.3492 17.3903 16.2092 17.4069 15.9672 17.2859C15.2555 17.001 14.5988 16.5943 14.0265 16.0842C13.4985 15.5965 13.0455 15.0333 12.6825 14.4128C12.5426 14.1756 12.6683 14.0404 12.7893 13.9205C12.9103 13.8007 13.0265 13.6382 13.1452 13.4982C13.2435 13.3761 13.3234 13.2402 13.3824 13.0949C13.4144 13.0285 13.4294 12.9551 13.4261 12.8814C13.4228 12.8077 13.4013 12.736 13.3634 12.6726C13.3029 12.554 12.8332 11.3571 12.6185 10.8802" fill="white"/>
</svg>
