<svg width="16" height="16" viewBox="0 0 16 16" fill="none" xmlns="http://www.w3.org/2000/svg">
<path d="M7.99998 10.6666C9.47274 10.6666 10.6666 9.47274 10.6666 7.99998C10.6666 6.52722 9.47274 5.33331 7.99998 5.33331C6.52722 5.33331 5.33331 6.52722 5.33331 7.99998C5.33331 9.47274 6.52722 10.6666 7.99998 10.6666Z" stroke="#3C3C3C" stroke-width="1.3" stroke-linecap="round" stroke-linejoin="round"/>
<path d="M10.6667 5.33333V8.66666C10.6667 9.19709 10.8774 9.7058 11.2524 10.0809C11.6275 10.4559 12.1362 10.6667 12.6667 10.6667C13.1971 10.6667 13.7058 10.4559 14.0809 10.0809C14.4559 9.7058 14.6667 9.19709 14.6667 8.66666V7.99999C14.6666 6.49535 14.1575 5.03498 13.2222 3.85635C12.2869 2.67772 10.9804 1.85014 9.51508 1.50819C8.0498 1.16624 6.51194 1.33002 5.15155 1.9729C3.79116 2.61579 2.68825 3.69996 2.02216 5.04914C1.35606 6.39832 1.16596 7.93315 1.48276 9.40407C1.79957 10.875 2.60464 12.1955 3.76707 13.1508C4.92951 14.1062 6.38094 14.6402 7.88537 14.6661C9.38979 14.692 10.8587 14.2082 12.0533 13.2933" stroke="#3C3C3C" stroke-width="1.3" stroke-linecap="round" stroke-linejoin="round"/>
</svg>
