<svg width="20" height="20" viewBox="0 0 20 20" fill="none" xmlns="http://www.w3.org/2000/svg">
<mask id="mask0_939_691" style="mask-type:alpha" maskUnits="userSpaceOnUse" x="0" y="0" width="20" height="20">
<rect width="20" height="20" fill="#D9D9D9"/>
</mask>
<g mask="url(#mask0_939_691)">
<path d="M10 17.9167C8.91462 17.9167 7.89032 17.7086 6.92712 17.2925C5.96393 16.8764 5.12393 16.3099 4.40712 15.5929C3.69018 14.8761 3.12365 14.0361 2.70754 13.0729C2.29143 12.1097 2.08337 11.0854 2.08337 10C2.08337 8.90598 2.29143 7.87952 2.70754 6.92064C3.12365 5.96175 3.69018 5.1239 4.40712 4.40709C5.12393 3.69015 5.96393 3.12362 6.92712 2.70751C7.89032 2.2914 8.91462 2.08334 10 2.08334C11.0941 2.08334 12.1205 2.2914 13.0794 2.70751C14.0383 3.12362 14.8762 3.69015 15.593 4.40709C16.3099 5.1239 16.8764 5.96175 17.2925 6.92064C17.7087 7.87952 17.9167 8.90598 17.9167 10C17.9167 11.0854 17.7087 12.1097 17.2925 13.0729C16.8764 14.0361 16.3099 14.8761 15.593 15.5929C14.8762 16.3099 14.0383 16.8764 13.0794 17.2925C12.1205 17.7086 11.0941 17.9167 10 17.9167ZM10 16.649C10.4253 16.0849 10.7832 15.5161 11.0738 14.9423C11.3643 14.3686 11.601 13.7414 11.7838 13.0608H8.21629C8.40976 13.7628 8.64914 14.4006 8.93442 14.9744C9.21955 15.5481 9.57476 16.1063 10 16.649ZM8.38629 16.4198C8.06685 15.9615 7.77997 15.4404 7.52567 14.8567C7.27136 14.2728 7.07372 13.6742 6.93275 13.0608H4.10587C4.54601 13.9263 5.13629 14.6533 5.87671 15.2421C6.61712 15.8307 7.45365 16.2233 8.38629 16.4198ZM11.6138 16.4198C12.5464 16.2233 13.383 15.8307 14.1234 15.2421C14.8638 14.6533 15.4541 13.9263 15.8942 13.0608H13.0673C12.8996 13.6795 12.6885 14.2807 12.4342 14.8646C12.18 15.4485 11.9066 15.9669 11.6138 16.4198ZM3.58171 11.8108H6.67962C6.62726 11.5011 6.58928 11.1974 6.56567 10.8998C6.54219 10.6023 6.53046 10.3024 6.53046 10C6.53046 9.69765 6.54219 9.39772 6.56567 9.10022C6.58928 8.80258 6.62726 8.4989 6.67962 8.18918H3.58171C3.50157 8.47223 3.44018 8.76654 3.39754 9.07209C3.35476 9.37765 3.33337 9.68695 3.33337 10C3.33337 10.3131 3.35476 10.6224 3.39754 10.9279C3.44018 11.2335 3.50157 11.5278 3.58171 11.8108ZM7.92942 11.8108H12.0707C12.1229 11.5011 12.1608 11.2001 12.1844 10.9079C12.2079 10.6157 12.2196 10.3131 12.2196 10C12.2196 9.68695 12.2079 9.38432 12.1844 9.09209C12.1608 8.79987 12.1229 8.4989 12.0707 8.18918H7.92942C7.87719 8.4989 7.83928 8.79987 7.81567 9.09209C7.79219 9.38432 7.78046 9.68695 7.78046 10C7.78046 10.3131 7.79219 10.6157 7.81567 10.9079C7.83928 11.2001 7.87719 11.5011 7.92942 11.8108ZM13.3205 11.8108H16.4184C16.4985 11.5278 16.5599 11.2335 16.6025 10.9279C16.6453 10.6224 16.6667 10.3131 16.6667 10C16.6667 9.68695 16.6453 9.37765 16.6025 9.07209C16.5599 8.76654 16.4985 8.47223 16.4184 8.18918H13.3205C13.3728 8.4989 13.4108 8.80258 13.4344 9.10022C13.4579 9.39772 13.4696 9.69765 13.4696 10C13.4696 10.3024 13.4579 10.6023 13.4344 10.8998C13.4108 11.1974 13.3728 11.5011 13.3205 11.8108ZM13.0673 6.93918H15.8942C15.4488 6.06307 14.8625 5.33598 14.1355 4.75793C13.4084 4.18001 12.5678 3.78473 11.6138 3.57209C11.9332 4.05709 12.2174 4.58758 12.4663 5.16355C12.7153 5.73938 12.9157 6.33126 13.0673 6.93918ZM8.21629 6.93918H11.7838C11.5903 6.24251 11.347 5.60064 11.0538 5.01355C10.7605 4.42647 10.4092 3.8723 10 3.35105C9.59087 3.8723 9.23962 4.42647 8.94629 5.01355C8.6531 5.60064 8.40976 6.24251 8.21629 6.93918ZM4.10587 6.93918H6.93275C7.08442 6.33126 7.28476 5.73938 7.53379 5.16355C7.78268 4.58758 8.06685 4.05709 8.38629 3.57209C7.42685 3.78473 6.58497 4.1814 5.86067 4.76209C5.13622 5.34265 4.55129 6.06834 4.10587 6.93918Z" fill="#FE6600"/>
</g>
</svg>
