<svg width="15" height="15" viewBox="0 0 15 15" fill="none" xmlns="http://www.w3.org/2000/svg">
<mask id="mask0_913_1184" style="mask-type:alpha" maskUnits="userSpaceOnUse" x="0" y="0" width="15" height="15">
<rect x="0.5" y="0.0722656" width="14" height="14" fill="#D9D9D9"/>
</mask>
<g mask="url(#mask0_913_1184)">
<path d="M3.59676 11.1549C3.30208 11.1549 3.05265 11.0529 2.84849 10.8487C2.64432 10.6445 2.54224 10.3951 2.54224 10.1004V2.2928C2.54224 1.99812 2.64432 1.7487 2.84849 1.54453C3.05265 1.34036 3.30208 1.23828 3.59676 1.23828H9.71053L12.4589 3.98666V10.1004C12.4589 10.3951 12.3568 10.6445 12.1527 10.8487C11.9485 11.0529 11.6991 11.1549 11.4044 11.1549H3.59676ZM3.59676 10.2799H11.4044C11.4568 10.2799 11.4998 10.2631 11.5334 10.2295C11.5671 10.1959 11.5839 10.1528 11.5839 10.1004V4.44661H9.25057V2.11328H3.59676C3.54435 2.11328 3.50133 2.1301 3.46769 2.16374C3.43406 2.19738 3.41724 2.2404 3.41724 2.2928V10.1004C3.41724 10.1528 3.43406 10.1959 3.46769 10.2295C3.50133 10.2631 3.54435 10.2799 3.59676 10.2799ZM4.72974 8.82161H10.2714V7.94661H4.72974V8.82161ZM4.72974 4.44661H7.50057V3.57161H4.72974V4.44661ZM4.72974 6.63411H10.2714V5.75911H4.72974V6.63411Z" fill="#B9B9B9"/>
</g>
</svg>
