<svg width="16" height="16" viewBox="0 0 16 16" fill="none" xmlns="http://www.w3.org/2000/svg">
<mask id="mask0_859_665" style="mask-type:alpha" maskUnits="userSpaceOnUse" x="0" y="0" width="16" height="16">
<rect width="16" height="16" fill="#D9D9D9"/>
</mask>
<g mask="url(#mask0_859_665)">
<path d="M5.2513 4.49746L7.0538 2.13196C7.17347 1.97185 7.31558 1.85429 7.48014 1.77929C7.64469 1.70418 7.81841 1.66663 8.0013 1.66663C8.18419 1.66663 8.35791 1.70418 8.52247 1.77929C8.68702 1.85429 8.82914 1.97185 8.9488 2.13196L10.7513 4.49746L13.5076 5.42813C13.771 5.51279 13.9763 5.66207 14.1236 5.87596C14.2711 6.08996 14.3448 6.32629 14.3448 6.58496C14.3448 6.7044 14.3274 6.82346 14.2925 6.94213C14.2576 7.06079 14.2002 7.17452 14.1205 7.28329L12.3256 9.77429L12.3923 12.418C12.4034 12.769 12.2877 13.0648 12.0451 13.3055C11.8027 13.5462 11.5201 13.6666 11.1975 13.6666C11.188 13.6666 11.0765 13.6521 10.8628 13.623L8.0013 12.8025L5.1398 13.623C5.08425 13.6452 5.02691 13.658 4.9678 13.6615C4.90869 13.6649 4.85447 13.6666 4.80514 13.6666C4.47947 13.6666 4.19614 13.5462 3.95514 13.3055C3.71414 13.0648 3.59919 12.769 3.6103 12.418L3.67697 9.75763L1.8923 7.28329C1.81252 7.17407 1.75519 7.0599 1.7203 6.94079C1.68541 6.82157 1.66797 6.7024 1.66797 6.58329C1.66797 6.33185 1.74119 6.09801 1.88764 5.88179C2.03408 5.66557 2.23864 5.51224 2.5013 5.42179L5.2513 4.49746ZM5.8693 5.35896L2.8218 6.37429C2.75769 6.39563 2.71391 6.43946 2.69047 6.50579C2.66691 6.57201 2.67652 6.6329 2.7193 6.68846L4.6833 9.46029L4.6103 12.4385C4.60597 12.5111 4.63158 12.5688 4.68714 12.6115C4.74269 12.6542 4.80469 12.665 4.87314 12.6436L8.0013 11.7653L11.1295 12.6603C11.1979 12.6816 11.2599 12.6709 11.3155 12.6281C11.371 12.5855 11.3966 12.5278 11.3923 12.4551L11.3193 9.46029L13.2833 6.72179C13.3261 6.66624 13.3357 6.60535 13.3121 6.53913C13.2887 6.47279 13.2449 6.42896 13.1808 6.40763L10.1333 5.35896L8.16164 2.75646C8.12308 2.70079 8.06964 2.67296 8.0013 2.67296C7.93297 2.67296 7.87952 2.70079 7.84097 2.75646L5.8693 5.35896Z" fill="#FE6600"/>
</g>
</svg>
