<svg width="19" height="20" viewBox="0 0 19 20" fill="none" xmlns="http://www.w3.org/2000/svg">
<path fill-rule="evenodd" clip-rule="evenodd" d="M14.319 13.4324C16.7628 10.2939 16.542 5.75323 13.6569 2.86805C10.5327 -0.256146 5.46734 -0.256146 2.34315 2.86805C-0.781049 5.99224 -0.781049 11.0576 2.34315 14.1818C5.22833 17.0669 9.76899 17.2877 12.9075 14.8439C12.921 14.8592 12.9351 14.8742 12.9497 14.8889L17.1924 19.1315C17.5829 19.522 18.2161 19.522 18.6066 19.1315C18.9971 18.741 18.9971 18.1078 18.6066 17.7173L14.364 13.4746C14.3493 13.46 14.3343 13.4459 14.319 13.4324ZM12.2426 4.28226C14.5858 6.62541 14.5858 10.4244 12.2426 12.7675C9.8995 15.1107 6.1005 15.1107 3.75736 12.7675C1.41421 10.4244 1.41421 6.62541 3.75736 4.28226C6.1005 1.93912 9.8995 1.93912 12.2426 4.28226Z" fill="#C5C5C5"/>
</svg>
