<svg width="38" height="38" viewBox="0 0 38 38" fill="none" xmlns="http://www.w3.org/2000/svg">
<g filter="url(#filter0_d)">
<circle cx="17" cy="17" r="11" fill="white"/>
</g>
<path d="M13.7314 20.8906C14.8273 22.6331 16.0048 24.1577 16.3588 24.607C16.4345 24.7045 16.5315 24.7834 16.6424 24.8377C16.7533 24.892 16.8751 24.9203 16.9986 24.9203C17.1221 24.9203 17.2439 24.892 17.3548 24.8377C17.4657 24.7834 17.5627 24.7045 17.6384 24.607C17.9923 24.1577 19.1699 22.6331 20.2658 20.8906C20.8253 20.0199 21.3212 19.11 21.7496 18.1679C22.1468 17.3768 22.3784 16.5128 22.4303 15.6291C22.4539 14.1607 21.8937 12.743 20.8726 11.6875C19.8516 10.632 18.4533 10.0251 16.985 10C16.2556 10.0141 15.5361 10.1722 14.868 10.4651C14.1998 10.758 13.5961 11.1799 13.0914 11.7067C12.5867 12.2335 12.1911 12.8548 11.9271 13.5349C11.6632 14.215 11.5361 14.9406 11.5533 15.6699C11.6051 16.5537 11.8367 17.4176 12.234 18.2088C12.6685 19.1373 13.1689 20.0335 13.7314 20.8906ZM16.9986 11.3613C18.1059 11.3863 19.158 11.8498 19.9237 12.6501C20.6895 13.4503 21.1063 14.5217 21.0825 15.6291C21.0236 16.3204 20.8293 16.9934 20.5108 17.6098C20.109 18.509 19.6427 19.378 19.1154 20.2099C18.3599 21.4079 17.5159 22.5378 16.9986 23.2252C16.4813 22.5446 15.6373 21.4079 14.8817 20.1759C14.3576 19.3681 13.8914 18.5242 13.4864 17.6506C13.1679 17.0342 12.9736 16.3612 12.9146 15.6699C12.8909 14.5626 13.3077 13.4911 14.0734 12.6909C14.8392 11.8907 15.8913 11.4272 16.9986 11.4022V11.3613Z" fill="#8C2C25"/>
<path d="M16.999 16.8475C17.7509 16.8475 18.3603 16.238 18.3603 15.4862C18.3603 14.7344 17.7509 14.1249 16.999 14.1249C16.2472 14.1249 15.6377 14.7344 15.6377 15.4862C15.6377 16.238 16.2472 16.8475 16.999 16.8475Z" fill="#8C2C25"/>
<defs>
<filter id="filter0_d" x="0" y="0" width="38" height="38" filterUnits="userSpaceOnUse" color-interpolation-filters="sRGB">
<feFlood flood-opacity="0" result="BackgroundImageFix"/>
<feColorMatrix in="SourceAlpha" type="matrix" values="0 0 0 0 0 0 0 0 0 0 0 0 0 0 0 0 0 0 127 0"/>
<feOffset dx="2" dy="2"/>
<feGaussianBlur stdDeviation="4"/>
<feColorMatrix type="matrix" values="0 0 0 0 0.220833 0 0 0 0 0.220833 0 0 0 0 0.220833 0 0 0 0.25 0"/>
<feBlend mode="normal" in2="BackgroundImageFix" result="effect1_dropShadow"/>
<feBlend mode="normal" in="SourceGraphic" in2="effect1_dropShadow" result="shape"/>
</filter>
</defs>
</svg>
