<svg width="14" height="15" viewBox="0 0 14 15" fill="none" xmlns="http://www.w3.org/2000/svg">
<mask id="mask0_904_713" style="mask-type:alpha" maskUnits="userSpaceOnUse" x="0" y="0" width="14" height="15">
<rect y="0.5" width="14" height="14" fill="#D9D9D9"/>
</mask>
<g mask="url(#mask0_904_713)">
<path d="M5.2513 9.86703C4.87661 9.86703 4.55859 9.73631 4.29726 9.47488C4.03583 9.21355 3.90511 8.89554 3.90511 8.52084C3.90511 8.14615 4.03583 7.82813 4.29726 7.5668C4.55859 7.30537 4.87661 7.17465 5.2513 7.17465C5.626 7.17465 5.94401 7.30537 6.20534 7.5668C6.46677 7.82813 6.59749 8.14615 6.59749 8.52084C6.59749 8.89554 6.46677 9.21355 6.20534 9.47488C5.94401 9.73631 5.626 9.86703 5.2513 9.86703ZM3.09749 13.0417C2.80281 13.0417 2.55339 12.9396 2.34922 12.7354C2.14505 12.5313 2.04297 12.2818 2.04297 11.9872V4.17953C2.04297 3.88485 2.14505 3.63543 2.34922 3.43126C2.55339 3.22709 2.80281 3.12501 3.09749 3.12501H3.90511V1.89111H4.80257V3.12501H9.22249V1.89111H10.0975V3.12501H10.9051C11.1998 3.12501 11.4492 3.22709 11.6534 3.43126C11.8576 3.63543 11.9596 3.88485 11.9596 4.17953V11.9872C11.9596 12.2818 11.8576 12.5313 11.6534 12.7354C11.4492 12.9396 11.1998 13.0417 10.9051 13.0417H3.09749ZM3.09749 12.1667H10.9051C10.95 12.1667 10.9912 12.148 11.0285 12.1105C11.0659 12.0732 11.0846 12.0321 11.0846 11.9872V6.51286H2.91797V11.9872C2.91797 12.0321 2.93668 12.0732 2.97411 12.1105C3.01145 12.148 3.05257 12.1667 3.09749 12.1667ZM2.91797 5.63786H11.0846V4.17953C11.0846 4.13461 11.0659 4.09349 11.0285 4.05615C10.9912 4.01872 10.95 4.00001 10.9051 4.00001H3.09749C3.05257 4.00001 3.01145 4.01872 2.97411 4.05615C2.93668 4.09349 2.91797 4.13461 2.91797 4.17953V5.63786Z" fill="#B9B9B9"/>
</g>
</svg>
