<svg width="16" height="16" viewBox="0 0 16 16" fill="none" xmlns="http://www.w3.org/2000/svg">
<mask id="mask0_904_790" style="mask-type:alpha" maskUnits="userSpaceOnUse" x="0" y="0" width="16" height="16">
<rect width="16" height="16" fill="#D9D9D9"/>
</mask>
<g mask="url(#mask0_904_790)">
<path d="M3.5411 13.6666C3.20433 13.6666 2.91927 13.5499 2.68594 13.3166C2.4526 13.0833 2.33594 12.7982 2.33594 12.4614V3.53842C2.33594 3.20164 2.4526 2.91659 2.68594 2.68325C2.91927 2.44992 3.20433 2.33325 3.5411 2.33325H10.5283L13.6693 5.47425V12.4614C13.6693 12.7982 13.5526 13.0833 13.3193 13.3166C13.0859 13.5499 12.8009 13.6666 12.4641 13.6666H3.5411ZM3.5411 12.6666H12.4641C12.524 12.6666 12.5732 12.6474 12.6116 12.6089C12.65 12.5705 12.6693 12.5213 12.6693 12.4614V5.99992H10.0026V3.33325H3.5411C3.48122 3.33325 3.43205 3.35247 3.3936 3.39092C3.35516 3.42936 3.33594 3.47853 3.33594 3.53842V12.4614C3.33594 12.5213 3.35516 12.5705 3.3936 12.6089C3.43205 12.6474 3.48122 12.6666 3.5411 12.6666ZM4.83594 10.9999H11.1693V9.99992H4.83594V10.9999ZM4.83594 5.99992H8.0026V4.99992H4.83594V5.99992ZM4.83594 8.49992H11.1693V7.49992H4.83594V8.49992Z" fill="#B9B9B9"/>
</g>
</svg>
