<svg width="16" height="16" viewBox="0 0 16 16" fill="none" xmlns="http://www.w3.org/2000/svg">
<mask id="mask0_883_878" style="mask-type:alpha" maskUnits="userSpaceOnUse" x="0" y="0" width="16" height="16">
<rect width="16" height="16" fill="#D9D9D9"/>
</mask>
<g mask="url(#mask0_883_878)">
<path d="M7.38497 14.3334C7.2343 14.3334 7.0833 14.3032 6.93197 14.243C6.78052 14.1827 6.64425 14.0923 6.52314 13.9719L2.0193 9.46802C1.89708 9.34624 1.80797 9.21174 1.75197 9.06452C1.69597 8.91741 1.66797 8.76774 1.66797 8.61552C1.66797 8.4633 1.69597 8.31147 1.75197 8.16002C1.80797 8.00869 1.89708 7.87246 2.0193 7.75135L7.73214 2.02819C7.8428 1.91774 7.97358 1.82991 8.12447 1.76469C8.27536 1.69935 8.4313 1.66669 8.5923 1.66669H13.1128C13.4496 1.66669 13.7357 1.7853 13.9711 2.02252C14.2066 2.25985 14.3243 2.54508 14.3243 2.87819V7.39869C14.3243 7.56135 14.2942 7.71635 14.234 7.86369C14.1737 8.01102 14.0868 8.13935 13.9731 8.24869L8.24364 13.9719C8.12308 14.0923 7.98747 14.1827 7.8368 14.243C7.68625 14.3032 7.53564 14.3334 7.38497 14.3334ZM7.23597 13.2692C7.27864 13.312 7.32886 13.3334 7.38664 13.3334C7.4443 13.3334 7.49447 13.312 7.53714 13.2692L13.2666 7.53585C13.2881 7.51452 13.3031 7.49102 13.3116 7.46535C13.3201 7.4398 13.3243 7.41419 13.3243 7.38852V2.87819C13.3243 2.81841 13.304 2.7693 13.2635 2.73085C13.2229 2.6923 13.1727 2.67302 13.1128 2.67302H8.5193L2.73214 8.46419C2.68936 8.50685 2.66797 8.55702 2.66797 8.61469C2.66797 8.67246 2.68936 8.72269 2.73214 8.76535L7.23597 13.2692ZM11.6385 5.18585C11.8717 5.18585 12.07 5.10485 12.2333 4.94285C12.3965 4.78085 12.4781 4.58408 12.4781 4.35252C12.4781 4.1193 12.3968 3.92108 12.2341 3.75785C12.0714 3.59452 11.8737 3.51285 11.6411 3.51285C11.4086 3.51285 11.2111 3.59424 11.0488 3.75702C10.8864 3.9198 10.8051 4.11747 10.8051 4.35002C10.8051 4.58246 10.8861 4.77991 11.0481 4.94235C11.2102 5.10469 11.407 5.18585 11.6385 5.18585Z" fill="#B9B9B9"/>
</g>
</svg>
