<svg width="28" height="28" viewBox="0 0 28 28" fill="none" xmlns="http://www.w3.org/2000/svg">
<path d="M18.9494 12.9333L13.9996 17.883L9.0499 12.9333L10.6998 11.2833L13.9996 14.5832L17.2995 11.2833L18.9494 12.9333Z" fill="#FE6600"/>
<path fill-rule="evenodd" clip-rule="evenodd" d="M26.833 13.9998C26.833 6.91218 21.0873 1.1665 13.9997 1.1665C6.91202 1.1665 1.16634 6.91218 1.16634 13.9998C1.16634 21.0875 6.91202 26.8332 13.9997 26.8332C21.0873 26.8332 26.833 21.0875 26.833 13.9998ZM13.9997 24.4998C19.7987 24.4998 24.4997 19.7988 24.4997 13.9998C24.4997 8.20085 19.7987 3.49984 13.9997 3.49984C8.20069 3.49984 3.49968 8.20085 3.49968 13.9998C3.49967 19.7988 8.20068 24.4998 13.9997 24.4998Z" fill="#FE6600"/>
</svg>
