<svg width="41" height="41" viewBox="0 0 41 41" fill="none" xmlns="http://www.w3.org/2000/svg">
<path d="M40.3163 40.9999H0.683327C0.306131 40.9999 0 40.6937 0 40.3165V37.5832C0 37.206 0.306131 36.8999 0.683327 36.8999H40.3163C40.6935 36.8999 40.9996 37.206 40.9996 37.5832V40.3165C40.9996 40.6937 40.6935 40.9999 40.3163 40.9999ZM1.36665 39.6332H39.633V38.2666H1.36665V39.6332Z" fill="white"/>
<path d="M38.9497 38.2665H2.05003C1.67283 38.2665 1.3667 37.9603 1.3667 37.5831V34.8498C1.3667 34.4726 1.67283 34.1665 2.05003 34.1665H38.9497C39.3269 34.1665 39.633 34.4726 39.633 34.8498V37.5831C39.633 37.9603 39.3269 38.2665 38.9497 38.2665ZM2.73335 36.8998H38.2664V35.5332H2.73335V36.8998Z" fill="white"/>
<path d="M11.6165 35.5336H3.4166C3.03941 35.5336 2.73328 35.2274 2.73328 34.8502V32.1169C2.73328 31.7397 3.03941 31.4336 3.4166 31.4336H11.6165C11.9937 31.4336 12.2999 31.7397 12.2999 32.1169V34.8502C12.2999 35.2274 11.9937 35.5336 11.6165 35.5336ZM4.09993 34.1669H10.9332V32.8002H4.09993V34.1669Z" fill="white"/>
<path d="M10.2499 15.0336H4.7833C4.40611 15.0336 4.09998 14.7274 4.09998 14.3502V11.6169C4.09998 11.2397 4.40611 10.9336 4.7833 10.9336H10.2499C10.6271 10.9336 10.9332 11.2397 10.9332 11.6169V14.3502C10.9332 14.7274 10.6271 15.0336 10.2499 15.0336ZM5.46663 13.6669H9.56659V12.3002H5.46663V13.6669Z" fill="white"/>
<path d="M10.2499 32.8H4.78332C4.59335 32.8 4.41159 32.7207 4.28244 32.5813C4.15329 32.4412 4.08769 32.254 4.10204 32.0647L5.4687 14.2982C5.49603 13.9422 5.79328 13.6675 6.14997 13.6675H8.88328C9.23998 13.6675 9.53723 13.9422 9.56456 14.2982L10.9312 32.0647C10.9456 32.2547 10.8806 32.4419 10.7515 32.5813C10.6217 32.7207 10.4406 32.8 10.2499 32.8ZM5.52131 31.4333H9.51194L8.25052 15.0335H6.78273L5.52131 31.4333Z" fill="white"/>
<path d="M40.3171 9.56693H0.684076C0.358129 9.56693 0.077281 9.33664 0.0144149 9.01685C-0.0491346 8.69705 0.121697 8.37657 0.423045 8.2522L20.2395 0.0522745C20.407 -0.0174248 20.5949 -0.0174248 20.7623 0.0522745L40.5788 8.2522C40.8801 8.37657 41.051 8.69705 40.9881 9.01685C40.9239 9.33664 40.643 9.56693 40.3171 9.56693ZM4.12258 8.20027H36.8786L20.5006 1.42303L4.12258 8.20027Z" fill="white"/>
<path d="M37.583 12.3002H3.4166C3.03941 12.3002 2.73328 11.994 2.73328 11.6168V8.88352C2.73328 8.50633 3.03941 8.2002 3.4166 8.2002H37.583C37.9602 8.2002 38.2663 8.50633 38.2663 8.88352V11.6168C38.2663 11.994 37.9602 12.3002 37.583 12.3002ZM4.09993 10.9335H36.8996V9.56685H4.09993V10.9335Z" fill="white"/>
<path d="M37.583 35.5336H29.383C29.0058 35.5336 28.6997 35.2274 28.6997 34.8502V32.1169C28.6997 31.7397 29.0058 31.4336 29.383 31.4336H37.583C37.9602 31.4336 38.2663 31.7397 38.2663 32.1169V34.8502C38.2663 35.2274 37.9602 35.5336 37.583 35.5336ZM30.0664 34.1669H36.8996V32.8002H30.0664V34.1669Z" fill="white"/>
<path d="M36.2164 15.0336H30.7497C30.3725 15.0336 30.0664 14.7274 30.0664 14.3502V11.6169C30.0664 11.2397 30.3725 10.9336 30.7497 10.9336H36.2164C36.5935 10.9336 36.8997 11.2397 36.8997 11.6169V14.3502C36.8997 14.7274 36.5935 15.0336 36.2164 15.0336ZM31.4331 13.6669H35.533V12.3002H31.4331V13.6669Z" fill="white"/>
<path d="M36.2164 32.8H30.7497C30.5598 32.8 30.378 32.7207 30.2489 32.5813C30.1197 32.4412 30.0541 32.254 30.0685 32.0647L31.4351 14.2982C31.4625 13.9422 31.7597 13.6675 32.1164 13.6675H34.8497C35.2064 13.6675 35.5037 13.9422 35.531 14.2982L36.8976 32.0647C36.912 32.2547 36.8471 32.4419 36.7179 32.5813C36.5881 32.7207 36.407 32.8 36.2164 32.8ZM31.4877 31.4333H35.4784L34.217 15.0335H32.7492L31.4877 31.4333Z" fill="white"/>
<path d="M24.5998 35.5336H16.3999C16.0227 35.5336 15.7166 35.2274 15.7166 34.8502V32.1169C15.7166 31.7397 16.0227 31.4336 16.3999 31.4336H24.5998C24.977 31.4336 25.2831 31.7397 25.2831 32.1169V34.8502C25.2831 35.2274 24.977 35.5336 24.5998 35.5336ZM17.0832 34.1669H23.9165V32.8002H17.0832V34.1669Z" fill="white"/>
<path d="M23.2331 15.0336H17.7665C17.3893 15.0336 17.0831 14.7274 17.0831 14.3502V11.6169C17.0831 11.2397 17.3893 10.9336 17.7665 10.9336H23.2331C23.6103 10.9336 23.9164 11.2397 23.9164 11.6169V14.3502C23.9164 14.7274 23.6103 15.0336 23.2331 15.0336ZM18.4498 13.6669H22.5497V12.3002H18.4498V13.6669Z" fill="white"/>
<path d="M23.2331 32.8H17.7665C17.5765 32.8 17.3947 32.7207 17.2656 32.5813C17.1364 32.4412 17.0708 32.254 17.0852 32.0647L18.4519 14.2982C18.4792 13.9422 18.7764 13.6675 19.1331 13.6675H21.8664C22.2231 13.6675 22.5204 13.9422 22.5477 14.2982L23.9144 32.0647C23.9287 32.2547 23.8638 32.4419 23.7347 32.5813C23.6048 32.7207 23.4237 32.8 23.2331 32.8ZM18.5045 31.4333H22.4951L21.2337 15.0335H19.7659L18.5045 31.4333Z" fill="white"/>
</svg>
