<svg width="39" height="39" viewBox="0 0 39 39" fill="none" xmlns="http://www.w3.org/2000/svg">
<path d="M29.2117 9.73708C28.5395 9.06487 27.4496 9.06487 26.7774 9.73708L19.4746 17.0399L12.1718 9.73708C11.4996 9.06487 10.4097 9.06487 9.73753 9.73708C9.06532 10.4093 9.06533 11.4991 9.73753 12.1713L17.0403 19.4742L9.73753 26.777C9.06533 27.4492 9.06533 28.539 9.73753 29.2112C10.4097 29.8834 11.4996 29.8834 12.1718 29.2112L19.4746 21.9084L26.7774 29.2112C27.4496 29.8834 28.5395 29.8834 29.2117 29.2112C29.8839 28.539 29.8839 27.4492 29.2117 26.777L21.9089 19.4742L29.2117 12.1713C29.8839 11.4991 29.8839 10.4093 29.2117 9.73708Z" fill="white"/>
</svg>
