<svg width="23" height="23" viewBox="0 0 23 23" fill="none" xmlns="http://www.w3.org/2000/svg">
<path fill-rule="evenodd" clip-rule="evenodd" d="M16.9703 5.65685C17.3609 6.04738 17.3609 6.68054 16.9703 7.07107L12.7277 11.3137L16.9703 15.5563C17.3609 15.9469 17.3609 16.58 16.9703 16.9706C16.5798 17.3611 15.9466 17.3611 15.5561 16.9706L11.3135 12.7279L7.07084 16.9706C6.68031 17.3611 6.04715 17.3611 5.65662 16.9706C5.2661 16.58 5.2661 15.9469 5.65662 15.5563L9.89926 11.3137L5.65662 7.07107C5.2661 6.68054 5.2661 6.04738 5.65662 5.65685C6.04715 5.26633 6.68031 5.26633 7.07084 5.65685L11.3135 9.89949L15.5561 5.65685C15.9466 5.26633 16.5798 5.26633 16.9703 5.65685Z" fill="#6F6F6F"/>
</svg>
