<svg width="17" height="17" viewBox="0 0 17 17" fill="none" xmlns="http://www.w3.org/2000/svg">
<path d="M10.5031 8.50016L11.5048 9.50189L13.5083 7.49842C14.6148 6.39194 14.6148 4.59797 13.5083 3.49149C12.4018 2.385 10.6079 2.385 9.50137 3.49148L7.4979 5.49495L8.49964 6.49669L10.5031 4.49322C11.0563 3.93998 11.9533 3.93998 12.5066 4.49322C13.0598 5.04646 13.0598 5.94345 12.5066 6.49669L10.5031 8.50016Z" fill="#6c6c6c"/>
<path d="M8.49967 10.5037L9.50141 11.5054L7.49794 13.5089C6.39145 14.6154 4.59748 14.6154 3.491 13.5089C2.38451 12.4024 2.38451 10.6084 3.491 9.50195L5.49447 7.49848L6.4962 8.50021L4.49273 10.5037C3.93949 11.0569 3.93949 11.9539 4.49273 12.5071C5.04597 13.0604 5.94296 13.0604 6.4962 12.5071L8.49967 10.5037Z" fill="#6c6c6c"/>
<path d="M10.5031 7.49837C10.7798 7.22175 10.7798 6.77326 10.5031 6.49664C10.2265 6.22002 9.77803 6.22002 9.5014 6.49664L6.4962 9.50184C6.21958 9.77846 6.21958 10.227 6.4962 10.5036C6.77282 10.7802 7.22131 10.7802 7.49793 10.5036L10.5031 7.49837Z" fill="#6c6c6c"/>
</svg>
