<svg width="20" height="20" viewBox="0 0 20 20" fill="none" xmlns="http://www.w3.org/2000/svg">
<path fill-rule="evenodd" clip-rule="evenodd" d="M13.5601 8.56014C13.5601 10.4011 12.0677 11.8935 10.2268 11.8935C8.38584 11.8935 6.89345 10.4011 6.89345 8.56014C6.89345 6.71919 8.38584 5.22681 10.2268 5.22681C12.0677 5.22681 13.5601 6.71919 13.5601 8.56014ZM11.8935 8.56014C11.8935 9.48062 11.1473 10.2268 10.2268 10.2268C9.30631 10.2268 8.56012 9.48062 8.56012 8.56014C8.56012 7.63967 9.30631 6.89347 10.2268 6.89347C11.1473 6.89347 11.8935 7.63967 11.8935 8.56014Z" fill="#FE6600"/>
<path fill-rule="evenodd" clip-rule="evenodd" d="M4.82847 13.7653C1.82854 10.9091 1.71199 6.16178 4.56815 3.16185C7.42431 0.16191 12.1716 0.0453598 15.1716 2.90152C18.1715 5.75769 18.288 10.505 15.4319 13.5049L10.2603 18.9368L4.82847 13.7653ZM14.2248 12.3557L10.2025 16.5805L5.9777 12.5582C3.64442 10.3367 3.55377 6.64436 5.77523 4.31108C7.99669 1.97779 11.689 1.88714 14.0223 4.1086C16.3556 6.33007 16.4463 10.0224 14.2248 12.3557Z" fill="#FE6600"/>
</svg>
