<svg width="20" height="20" viewBox="0 0 20 20" fill="none" xmlns="http://www.w3.org/2000/svg">
<path d="M13.3 10.0002L14.9499 11.6501L18.2497 8.35029C20.0722 6.52784 20.0722 3.57307 18.2497 1.75062C16.4273 -0.0718225 13.4725 -0.0718228 11.6501 1.75062L8.35023 5.05046L10.0002 6.70037L13.3 3.40054C14.2112 2.48932 15.6886 2.48932 16.5998 3.40054C17.511 4.31176 17.511 5.78915 16.5998 6.70037L13.3 10.0002Z" fill="#FE6600"/>
<path d="M10.0002 13.3001L11.6501 14.95L8.35029 18.2499C6.52784 20.0723 3.57307 20.0723 1.75062 18.2499C-0.0718225 16.4274 -0.0718228 13.4727 1.75062 11.6502L5.05046 8.35038L6.70037 10.0003L3.40054 13.3001C2.48932 14.2113 2.48932 15.6887 3.40054 16.6C4.31176 17.5112 5.78915 17.5112 6.70037 16.6L10.0002 13.3001Z" fill="#FE6600"/>
<path d="M13.3 8.35021C13.7556 7.8946 13.7556 7.1559 13.3 6.70029C12.8444 6.24468 12.1057 6.24468 11.6501 6.70029L6.70037 11.65C6.24476 12.1056 6.24476 12.8443 6.70037 13.3C7.15598 13.7556 7.89467 13.7556 8.35029 13.3L13.3 8.35021Z" fill="#FE6600"/>
</svg>
