<svg width="24" height="30" viewBox="0 0 24 30" fill="none" xmlns="http://www.w3.org/2000/svg">
<path d="M13.0858 0.5C13.2184 0.5 13.3456 0.552678 13.4393 0.646446L23.3536 10.5607C23.4473 10.6544 23.5 10.7816 23.5 10.9142V27C23.5 27.663 23.2366 28.2989 22.7678 28.7678C22.2989 29.2366 21.663 29.5 21 29.5H3C2.33696 29.5 1.70107 29.2366 1.23223 28.7678C0.763392 28.2989 0.5 27.663 0.5 27V3C0.5 2.33696 0.763392 1.70107 1.23223 1.23223C1.70107 0.763392 2.33696 0.5 3 0.5H13.0858Z" stroke="#FE6600" stroke-linecap="round" stroke-linejoin="round"/>
<path d="M13.5 1.5V9.5C13.5 10.0523 13.9477 10.5 14.5 10.5H22.5" stroke="#FE6600" stroke-linecap="round" stroke-linejoin="round"/>
</svg>
