<svg width="60" height="60" viewBox="0 0 60 60" fill="none" xmlns="http://www.w3.org/2000/svg">
<mask id="mask0_919_4902" style="mask-type:alpha" maskUnits="userSpaceOnUse" x="0" y="0" width="60" height="60">
<rect width="60" height="60" fill="#D9D9D9"/>
</mask>
<g mask="url(#mask0_919_4902)">
<path d="M46.1642 52.4374C45.8946 52.4374 45.6461 52.3932 45.4186 52.3049C45.1911 52.2169 44.9683 52.064 44.7504 51.8461L32.2892 39.4324C32.0708 39.2144 31.9177 38.9917 31.8298 38.7642C31.7415 38.5367 31.6973 38.2884 31.6973 38.0192C31.6973 37.7501 31.7415 37.5015 31.8298 37.2736C31.9177 37.0461 32.0708 36.8234 32.2892 36.6055L36.4473 32.4467C36.6652 32.2288 36.8881 32.0759 37.1161 31.988C37.3436 31.8996 37.5919 31.8555 37.8611 31.8555C38.1302 31.8555 38.3786 31.8996 38.6061 31.988C38.8336 32.0759 39.0563 32.2288 39.2742 32.4467L51.7361 44.9086C51.954 45.1265 52.1071 45.3492 52.1954 45.5767C52.2833 45.8042 52.3273 46.0526 52.3273 46.3217C52.3273 46.5913 52.2833 46.8399 52.1954 47.0674C52.1071 47.2949 51.954 47.5176 51.7361 47.7355L47.5773 51.8461C47.3594 52.064 47.1367 52.2169 46.9092 52.3049C46.6817 52.3932 46.4333 52.4374 46.1642 52.4374ZM46.1642 49.8174L49.6592 46.3217L37.8754 34.5386L34.3804 38.0336L46.1642 49.8174ZM13.7742 52.4517C13.505 52.4517 13.2544 52.4053 13.0223 52.3124C12.7898 52.2194 12.5646 52.064 12.3467 51.8461L8.2023 47.7499C7.98439 47.5319 7.82897 47.3067 7.73605 47.0742C7.64314 46.8421 7.59668 46.5913 7.59668 46.3217C7.59668 46.0526 7.64314 45.7963 7.73605 45.553C7.82897 45.3092 7.98439 45.0784 8.2023 44.8605L21.0679 31.9949H26.2842L28.2167 30.0624L17.6161 19.4611H14.0536L7.74105 13.1486L13.0723 7.81736L19.3848 14.1299V17.6924L29.9861 28.293L37.5242 20.7549L32.9142 16.1442L35.7411 13.3174H30.0723L29.0436 12.3361L36.1398 5.24048L37.1204 6.2211V11.9374L39.9473 9.11048L49.8804 18.9467C50.4925 19.5271 50.9461 20.1932 51.2411 20.9449C51.5356 21.6961 51.6829 22.4917 51.6829 23.3317C51.6829 23.9471 51.5917 24.5449 51.4092 25.1249C51.2263 25.7049 50.9571 26.253 50.6017 26.7692L45.4811 21.6486L41.9329 25.1967L39.2598 22.5236L28.0054 33.7786V39.0767L15.1879 51.8461C14.97 52.064 14.7473 52.2194 14.5198 52.3124C14.2923 52.4053 14.0438 52.4517 13.7742 52.4517ZM13.7742 49.7692L26.0823 37.4611V33.9661H22.5867L10.2792 46.2736L13.7742 49.7692ZM13.7742 49.7692L10.2792 46.2736L12.0342 48.0142L13.7742 49.7692Z" fill="#717171"/>
</g>
</svg>
