<svg version="1.1" xmlns="http://www.w3.org/2000/svg" xmlns:xlink="http://www.w3.org/1999/xlink">

    <symbol viewBox="0 0 24 24" id="up-link">
        <path d="M12.0014 10.4538L7.40141 15.0538L6.34766 14L12.0014 8.34625L17.6552 14L16.6014 15.0538L12.0014 10.4538Z" />
    </symbol>

    <symbol viewBox="0 0 31 30" id="challenges-item-arrow">
        <path d="M15.5 18.4134L19.9231 13.9903H11.0769L15.5 18.4134ZM15.5022 26.875C13.8597 26.875 12.3158 26.5633 10.8706 25.94C9.42542 25.3167 8.16833 24.4707 7.09937 23.4022C6.03042 22.3336 5.18406 21.0771 4.56031 19.6325C3.93677 18.1879 3.625 16.6445 3.625 15.0022C3.625 13.3597 3.93667 11.8158 4.56 10.3706C5.18333 8.92542 6.02927 7.66833 7.09781 6.59937C8.16635 5.53042 9.42292 4.68406 10.8675 4.06031C12.3121 3.43677 13.8555 3.125 15.4978 3.125C17.1403 3.125 18.6842 3.43667 20.1294 4.06C21.5746 4.68333 22.8317 5.52927 23.9006 6.59781C24.9696 7.66635 25.8159 8.92292 26.4397 10.3675C27.0632 11.8121 27.375 13.3555 27.375 14.9978C27.375 16.6403 27.0633 18.1842 26.44 19.6294C25.8167 21.0746 24.9707 22.3317 23.9022 23.4006C22.8336 24.4696 21.5771 25.3159 20.1325 25.9397C18.6879 26.5632 17.1445 26.875 15.5022 26.875ZM15.5 25C18.2917 25 20.6563 24.0312 22.5938 22.0937C24.5313 20.1562 25.5 17.7917 25.5 15C25.5 12.2083 24.5312 9.84375 22.5938 7.90625C20.6562 5.96875 18.2917 5 15.5 5C12.7083 5 10.3438 5.96875 8.40625 7.90625C6.46875 9.84375 5.5 12.2083 5.5 15C5.5 17.7917 6.46875 20.1562 8.40625 22.0938C10.3438 24.0312 12.7083 25 15.5 25Z" />
    </symbol>

    <symbol viewBox="0 0 8 5" id="task-2024-item-detail-link">
        <path d="M3.76916 3.33083L6.83583 0.26416L7.53833 0.96666L3.76916 4.73583L-3.8454e-06 0.96666L0.702496 0.26416L3.76916 3.33083Z" />
    </symbol>

    <symbol viewBox="0 0 24 24" id="pager-size">
        <path d="M12.0025 12.9462L16.6025 8.34619L17.6562 9.39994L12.0025 15.0537L6.34875 9.39994L7.4025 8.34619L12.0025 12.9462Z" />
    </symbol>

    <symbol viewBox="0 0 12 8" id="media-2024-filter-item-label">
        <path d="M5.65484 5.24624L10.2548 0.64624L11.3086 1.69999L5.65484 7.35374L0.00109286 1.69999L1.05484 0.64624L5.65484 5.24624Z" />
    </symbol>

    <symbol viewBox="0 0 21 20" id="media-2024-filter-item-current-remove">
        <path d="M7.1675 14.0304L6.28125 13.1441L9.42542 9.99994L6.28125 6.87661L7.1675 5.99036L10.3117 9.13452L13.435 5.99036L14.3213 6.87661L11.1771 9.99994L14.3213 13.1441L13.435 14.0304L10.3117 10.8862L7.1675 14.0304Z" />
    </symbol>

    <symbol viewBox="0 0 18 18" id="media-2024-filter-item-tags-search">
        <path d="M14.7 15.75L9.975 11.025C9.6 11.325 9.16875 11.5625 8.68125 11.7375C8.19375 11.9125 7.675 12 7.125 12C5.7625 12 4.60938 11.5281 3.66563 10.5844C2.72188 9.64062 2.25 8.4875 2.25 7.125C2.25 5.7625 2.72188 4.60938 3.66563 3.66563C4.60938 2.72188 5.7625 2.25 7.125 2.25C8.4875 2.25 9.64062 2.72188 10.5844 3.66563C11.5281 4.60938 12 5.7625 12 7.125C12 7.675 11.9125 8.19375 11.7375 8.68125C11.5625 9.16875 11.325 9.6 11.025 9.975L15.75 14.7L14.7 15.75ZM7.125 10.5C8.0625 10.5 8.85938 10.1719 9.51562 9.51562C10.1719 8.85938 10.5 8.0625 10.5 7.125C10.5 6.1875 10.1719 5.39062 9.51562 4.73438C8.85938 4.07812 8.0625 3.75 7.125 3.75C6.1875 3.75 5.39062 4.07812 4.73438 4.73438C4.07812 5.39062 3.75 6.1875 3.75 7.125C3.75 8.0625 4.07812 8.85938 4.73438 9.51562C5.39062 10.1719 6.1875 10.5 7.125 10.5Z" />
    </symbol>

    <symbol viewBox="0 0 30 30" id="media-2024-detail-back">
        <path d="M17.0352 20L12.0352 15L17.0352 10L17.9671 10.9319L13.899 15L17.9671 19.0681L17.0352 20Z" />
    </symbol>

    <symbol viewBox="0 0 16 17" id="event-detail-social">
        <path d="M11.205 14.8334C10.706 14.8334 10.2823 14.6589 9.93397 14.3099C9.58575 13.9609 9.41164 13.5371 9.41164 13.0385C9.41164 12.9719 9.43469 12.8099 9.4808 12.5525L4.7398 9.76152C4.57914 9.92819 4.38825 10.0587 4.16714 10.1532C3.94602 10.2476 3.70914 10.2949 3.45647 10.2949C2.95969 10.2949 2.53741 10.1196 2.18964 9.76919C1.84186 9.41874 1.66797 8.99569 1.66797 8.50002C1.66797 8.00435 1.84186 7.5813 2.18964 7.23085C2.53741 6.88041 2.95969 6.70519 3.45647 6.70519C3.70914 6.70519 3.94602 6.75241 4.16714 6.84685C4.38825 6.9413 4.57914 7.07185 4.7398 7.23852L9.4808 4.45385C9.45436 4.37185 9.43619 4.29152 9.4263 4.21285C9.41652 4.13419 9.41164 4.05041 9.41164 3.96152C9.41164 3.46296 9.58625 3.03919 9.93547 2.69019C10.2848 2.34119 10.709 2.16669 11.208 2.16669C11.707 2.16669 12.1306 2.34135 12.4788 2.69069C12.8271 3.03991 13.0013 3.46402 13.0013 3.96302C13.0013 4.46202 12.8268 4.88569 12.4778 5.23402C12.1288 5.58224 11.705 5.75635 11.2065 5.75635C10.9526 5.75635 10.7165 5.70808 10.4981 5.61152C10.2797 5.51497 10.0901 5.38335 9.92947 5.21669L5.18847 8.00769C5.21491 8.0898 5.23308 8.17013 5.24297 8.24869C5.25275 8.32735 5.25764 8.41113 5.25764 8.50002C5.25764 8.58891 5.25275 8.67269 5.24297 8.75135C5.23308 8.82991 5.21491 8.91024 5.18847 8.99235L9.92947 11.7834C10.0901 11.6167 10.2797 11.4851 10.4981 11.3885C10.7165 11.292 10.9526 11.2437 11.2065 11.2437C11.705 11.2437 12.1288 11.4183 12.4778 11.7675C12.8268 12.1169 13.0013 12.541 13.0013 13.04C13.0013 13.539 12.8266 13.9626 12.4773 14.3109C12.1281 14.6592 11.704 14.8334 11.205 14.8334ZM11.2065 13.8334C11.4317 13.8334 11.6205 13.7572 11.7728 13.6049C11.9251 13.4525 12.0013 13.2637 12.0013 13.0385C12.0013 12.8133 11.9251 12.6245 11.7728 12.4722C11.6205 12.3197 11.4317 12.2435 11.2065 12.2435C10.9812 12.2435 10.7925 12.3197 10.6401 12.4722C10.4877 12.6245 10.4115 12.8133 10.4115 13.0385C10.4115 13.2637 10.4877 13.4525 10.6401 13.6049C10.7925 13.7572 10.9812 13.8334 11.2065 13.8334ZM3.45647 9.29485C3.68347 9.29485 3.87375 9.21869 4.0273 9.06635C4.18097 8.91402 4.2578 8.72524 4.2578 8.50002C4.2578 8.2748 4.18097 8.08602 4.0273 7.93369C3.87375 7.78135 3.68347 7.70519 3.45647 7.70519C3.23302 7.70519 3.04575 7.78135 2.89464 7.93369C2.74352 8.08602 2.66797 8.2748 2.66797 8.50002C2.66797 8.72524 2.74352 8.91402 2.89464 9.06635C3.04575 9.21869 3.23302 9.29485 3.45647 9.29485ZM11.2065 4.75652C11.4317 4.75652 11.6205 4.6803 11.7728 4.52785C11.9251 4.37552 12.0013 4.18674 12.0013 3.96152C12.0013 3.7363 11.9251 3.54752 11.7728 3.39519C11.6205 3.24285 11.4317 3.16669 11.2065 3.16669C10.9812 3.16669 10.7925 3.24285 10.6401 3.39519C10.4877 3.54752 10.4115 3.7363 10.4115 3.96152C10.4115 4.18674 10.4877 4.37552 10.6401 4.52785C10.7925 4.6803 10.9812 4.75652 11.2065 4.75652Z" />
    </symbol>

    <symbol viewBox="0 0 20 21" id="challenges-header-2024-link">
        <path d="M11.7061 5.78863L16.4177 10.5001L11.7061 15.2115L10.8279 14.3078L14.0106 11.1251L3.58106 11.1251L3.58106 9.87509L14.0106 9.87509L10.8279 6.69238L11.7061 5.78863Z" />
    </symbol>

    <symbol viewBox="0 0 34 34" id="docs-2024-index-item-arrow">
        <path d="M16.9974 20.8685L22.0103 15.8556H11.9845L16.9974 20.8685ZM16.9999 30.4583C15.1384 30.4583 13.3887 30.1051 11.7508 29.3986C10.1129 28.6922 8.68817 27.7335 7.47669 26.5224C6.2652 25.3114 5.306 23.8873 4.59908 22.2501C3.8924 20.6129 3.53906 18.8637 3.53906 17.0024C3.53906 15.1409 3.89228 13.3912 4.59873 11.7533C5.30517 10.1154 6.2639 8.69074 7.47492 7.47925C8.68593 6.26776 10.11 5.30856 11.7472 4.60165C13.3844 3.89497 15.1337 3.54163 16.9949 3.54163C18.8564 3.54163 20.6061 3.89485 22.244 4.60129C23.8819 5.30774 25.3066 6.26647 26.5181 7.47748C27.7296 8.68849 28.6888 10.1126 29.3957 11.7498C30.1024 13.387 30.4557 15.1362 30.4557 16.9975C30.4557 18.859 30.1025 20.6087 29.3961 22.2466C28.6896 23.8845 27.7309 25.3092 26.5199 26.5207C25.3089 27.7322 23.8848 28.6914 22.2476 29.3983C20.6104 30.105 18.8611 30.4583 16.9999 30.4583ZM16.9974 28.3333C20.1613 28.3333 22.8411 27.2354 25.037 25.0395C27.2328 22.8437 28.3307 20.1638 28.3307 17C28.3307 13.8361 27.2328 11.1562 25.037 8.96038C22.8411 6.76454 20.1613 5.66663 16.9974 5.66663C13.8335 5.66663 11.1536 6.76454 8.95781 8.96038C6.76198 11.1562 5.66406 13.8361 5.66406 17C5.66406 20.1638 6.76198 22.8437 8.95781 25.0395C11.1536 27.2354 13.8335 28.3333 16.9974 28.3333Z" />
    </symbol>

    <symbol viewBox="0 0 18 18" id="media-2024-detail-download">
        <path d="M9 11.8414L5.79806 8.63944L6.58856 7.82606L8.4375 9.675V3.375H9.5625V9.675L11.4114 7.82606L12.2019 8.63944L9 11.8414ZM4.73081 14.625C4.35194 14.625 4.03125 14.4938 3.76875 14.2313C3.50625 13.9688 3.375 13.6481 3.375 13.2692V11.2356H4.5V13.2692C4.5 13.3269 4.52406 13.3798 4.57219 13.4278C4.62019 13.4759 4.67306 13.5 4.73081 13.5H13.2692C13.3269 13.5 13.3798 13.4759 13.4278 13.4278C13.4759 13.3798 13.5 13.3269 13.5 13.2692V11.2356H14.625V13.2692C14.625 13.6481 14.4938 13.9688 14.2313 14.2313C13.9688 14.4938 13.6481 14.625 13.2692 14.625H4.73081Z" />
    </symbol>

</svg>