<svg version="1.1" xmlns="http://www.w3.org/2000/svg" xmlns:xlink="http://www.w3.org/1999/xlink">

    <symbol viewBox="0 0 24 24" id="up-link">
        <path d="M12.0014 10.4538L7.40141 15.0538L6.34766 14L12.0014 8.34625L17.6552 14L16.6014 15.0538L12.0014 10.4538Z" />
    </symbol>

    <symbol viewBox="0 0 31 30" id="challenges-item-arrow">
        <path d="M15.5 18.4134L19.9231 13.9903H11.0769L15.5 18.4134ZM15.5022 26.875C13.8597 26.875 12.3158 26.5633 10.8706 25.94C9.42542 25.3167 8.16833 24.4707 7.09937 23.4022C6.03042 22.3336 5.18406 21.0771 4.56031 19.6325C3.93677 18.1879 3.625 16.6445 3.625 15.0022C3.625 13.3597 3.93667 11.8158 4.56 10.3706C5.18333 8.92542 6.02927 7.66833 7.09781 6.59937C8.16635 5.53042 9.42292 4.68406 10.8675 4.06031C12.3121 3.43677 13.8555 3.125 15.4978 3.125C17.1403 3.125 18.6842 3.43667 20.1294 4.06C21.5746 4.68333 22.8317 5.52927 23.9006 6.59781C24.9696 7.66635 25.8159 8.92292 26.4397 10.3675C27.0632 11.8121 27.375 13.3555 27.375 14.9978C27.375 16.6403 27.0633 18.1842 26.44 19.6294C25.8167 21.0746 24.9707 22.3317 23.9022 23.4006C22.8336 24.4696 21.5771 25.3159 20.1325 25.9397C18.6879 26.5632 17.1445 26.875 15.5022 26.875ZM15.5 25C18.2917 25 20.6563 24.0312 22.5938 22.0937C24.5313 20.1562 25.5 17.7917 25.5 15C25.5 12.2083 24.5312 9.84375 22.5938 7.90625C20.6562 5.96875 18.2917 5 15.5 5C12.7083 5 10.3438 5.96875 8.40625 7.90625C6.46875 9.84375 5.5 12.2083 5.5 15C5.5 17.7917 6.46875 20.1562 8.40625 22.0938C10.3438 24.0312 12.7083 25 15.5 25Z" />
    </symbol>

</svg>