<svg width="20" height="21" viewBox="0 0 20 21" fill="none" xmlns="http://www.w3.org/2000/svg">
<g clip-path="url(#clip0_302_599)">
<path d="M10 0.339722C4.47254 0.339722 0 4.81265 0 10.3397C0 15.8672 4.47293 20.3397 10 20.3397C15.5275 20.3397 20 15.8668 20 10.3397C20 4.81226 15.527 0.339722 10 0.339722ZM10 18.7772C5.33621 18.7772 1.5625 15.0032 1.5625 10.3397C1.5625 5.67593 5.33652 1.90222 10 1.90222C14.6638 1.90222 18.4375 5.67625 18.4375 10.3397C18.4375 15.0035 14.6634 18.7772 10 18.7772Z" fill="#005AC5"/>
<path d="M10 8.71198C9.56852 8.71198 9.21875 9.06174 9.21875 9.49323V14.5242C9.21875 14.9557 9.56852 15.3055 10 15.3055C10.4315 15.3055 10.7812 14.9556 10.7812 14.5242V9.49323C10.7812 9.06174 10.4315 8.71198 10 8.71198Z" fill="#005AC5"/>
<path d="M10 7.75534C10.5825 7.75534 11.0547 7.28314 11.0547 6.70065C11.0547 6.11816 10.5825 5.64597 10 5.64597C9.41751 5.64597 8.94531 6.11816 8.94531 6.70065C8.94531 7.28314 9.41751 7.75534 10 7.75534Z" fill="#005AC5"/>
</g>
<defs>
<clipPath id="clip0_302_599">
<rect width="20" height="20" fill="white" transform="translate(0 0.339722)"/>
</clipPath>
</defs>
</svg>
