<svg width="77" height="18" viewBox="0 0 77 18" fill="none" xmlns="http://www.w3.org/2000/svg">
<path d="M76.6836 4.90897C76.8789 4.71371 76.8789 4.39713 76.6836 4.20187L73.5017 1.01989C73.3064 0.824624 72.9898 0.824624 72.7945 1.01989C72.5993 1.21515 72.5993 1.53173 72.7945 1.72699L75.623 4.55542L72.7945 7.38385C72.5993 7.57911 72.5993 7.89569 72.7945 8.09095C72.9898 8.28622 73.3064 8.28622 73.5017 8.09095L76.6836 4.90897ZM76.3301 4.05542L-6.10352e-05 4.05542V5.05542L76.3301 5.05542V4.05542Z" fill="#FE6600"/>
<path d="M76.6836 4.90897C76.8789 4.71371 76.8789 4.39713 76.6836 4.20187L73.5017 1.01989C73.3064 0.824624 72.9898 0.824624 72.7945 1.01989C72.5993 1.21515 72.5993 1.53173 72.7945 1.72699L75.623 4.55542L72.7945 7.38385C72.5993 7.57911 72.5993 7.89569 72.7945 8.09095C72.9898 8.28622 73.3064 8.28622 73.5017 8.09095L76.6836 4.90897ZM76.3301 4.05542L-6.10352e-05 4.05542V5.05542L76.3301 5.05542V4.05542Z" fill="#DFE7F3" transform="translate(0 9)"/>
</svg>
