<svg width="29" height="29" viewBox="0 0 29 29" fill="none" xmlns="http://www.w3.org/2000/svg">
<path d="M19.7934 13.4302L14.8437 18.38L9.89395 13.4302L11.5439 11.7803L14.8437 15.0801L18.1435 11.7803L19.7934 13.4302Z" fill="#FE6600"/>
<path fill-rule="evenodd" clip-rule="evenodd" d="M27.6771 14.4968C27.6771 7.40916 21.9314 1.66348 14.8437 1.66348C7.75608 1.66348 2.0104 7.40916 2.0104 14.4968C2.0104 21.5845 7.75608 27.3301 14.8437 27.3301C21.9314 27.3301 27.6771 21.5845 27.6771 14.4968ZM14.8437 24.9968C20.6427 24.9968 25.3437 20.2958 25.3437 14.4968C25.3437 8.69783 20.6427 3.99682 14.8437 3.99682C9.04474 3.99682 4.34373 8.69783 4.34373 14.4968C4.34373 20.2958 9.04474 24.9968 14.8437 24.9968Z" fill="#FE6600"/>
</svg>
