<svg width="17" height="16" viewBox="0 0 17 16" fill="none" xmlns="http://www.w3.org/2000/svg">
<mask id="mask0_3312_20" style="mask-type:alpha" maskUnits="userSpaceOnUse" x="0" y="0" width="17" height="16">
<rect x="0.5" width="16" height="16" fill="#D9D9D9"/>
</mask>
<g mask="url(#mask0_3312_20)">
<path d="M4.03915 12.6668C3.70237 12.6668 3.41732 12.5502 3.18398 12.3168C2.95065 12.0835 2.83398 11.7984 2.83398 11.4617V2.53866C2.83398 2.20188 2.95065 1.91683 3.18398 1.6835C3.41732 1.45016 3.70237 1.3335 4.03915 1.3335H11.0263L14.1673 4.4745V11.4617C14.1673 11.7984 14.0507 12.0835 13.8173 12.3168C13.584 12.5502 13.2989 12.6668 12.9622 12.6668H4.03915ZM4.03915 11.6668H12.9622C13.022 11.6668 13.0712 11.6476 13.1097 11.6092C13.1481 11.5707 13.1673 11.5216 13.1673 11.4617V5.00016H10.5007V2.3335H4.03915C3.97926 2.3335 3.9301 2.35272 3.89165 2.39116C3.85321 2.42961 3.83398 2.47877 3.83398 2.53866V11.4617C3.83398 11.5216 3.85321 11.5707 3.89165 11.6092C3.9301 11.6476 3.97926 11.6668 4.03915 11.6668ZM5.33398 10.0002H11.6673V9.00016H5.33398V10.0002ZM5.33398 5.00016H8.50065V4.00016H5.33398V5.00016ZM5.33398 7.50016H11.6673V6.50016H5.33398V7.50016Z" fill="#B9B9B9"/>
</g>
</svg>
