<svg width="31" height="31" viewBox="0 0 31 31" fill="none" xmlns="http://www.w3.org/2000/svg">
<mask id="mask0_833_387" style="mask-type:alpha" maskUnits="userSpaceOnUse" x="0" y="0" width="31" height="31">
<rect x="0.5" y="0.5" width="30" height="30" fill="#D9D9D9"/>
</mask>
<g mask="url(#mask0_833_387)">
<path d="M4.5625 25.4375V23.3822L6.4375 21.5072V25.4375H4.5625ZM9.5625 25.4375V18.3822L11.4375 16.5072V25.4375H9.5625ZM14.5625 25.4375V16.5072L16.4375 18.4135V25.4375H14.5625ZM19.5625 25.4375V18.4135L21.4375 16.5385V25.4375H19.5625ZM24.5625 25.4375V13.3822L26.4375 11.5072V25.4375H24.5625ZM4.5625 18.5241V15.8822L13 7.4447L18 12.4447L26.4375 4.0072V6.64908L18 15.0866L13 10.0866L4.5625 18.5241Z" fill="white"/>
</g>
</svg>
