<svg width="31" height="31" viewBox="0 0 31 31" fill="none" xmlns="http://www.w3.org/2000/svg">
<mask id="mask0_833_377" style="mask-type:alpha" maskUnits="userSpaceOnUse" x="0" y="0" width="31" height="31">
<rect x="0.5" y="0.5" width="30" height="30" fill="#D9D9D9"/>
</mask>
<g mask="url(#mask0_833_377)">
<path d="M4.875 12.19V10.0747L10.5553 4.39435H12.6706L4.875 12.19ZM4.875 6.58185V4.75497L5.23562 4.39435H7.0625L4.875 6.58185ZM19.9975 8.39904C19.8212 8.22591 19.6333 8.05602 19.4338 7.88935C19.2344 7.72268 19.0336 7.57612 18.8316 7.44966L21.8869 4.39435H24.0022L19.9975 8.39904ZM6.79812 19.4831L9.94969 16.3315C10.0714 16.5367 10.1923 16.7211 10.3125 16.8847C10.4327 17.048 10.5666 17.201 10.7141 17.3437L9.8125 18.2453C9.32521 18.3751 8.81875 18.5474 8.29313 18.7622C7.7675 18.9767 7.26917 19.2171 6.79812 19.4831ZM21.8341 12.1972V12.1584C21.818 11.8749 21.7768 11.5857 21.7103 11.2909C21.6439 10.9959 21.5561 10.7195 21.4472 10.4615L26.125 5.78372V7.90622L21.8341 12.1972ZM13.9087 6.70685L16.2403 4.39435H18.3556L16.1634 6.58654C16.0224 6.56091 15.8878 6.54164 15.7597 6.52872C15.6314 6.51601 15.4967 6.50966 15.3556 6.50966C15.1265 6.51758 14.8853 6.53997 14.6322 6.57685C14.3791 6.61372 14.1379 6.65706 13.9087 6.70685ZM4.875 17.8556V15.7403L9.20687 11.4087C9.14917 11.6539 9.10385 11.8971 9.07094 12.1381C9.03802 12.3793 9.02156 12.6146 9.02156 12.8437C9.02156 12.9848 9.02802 13.1193 9.04094 13.2475C9.05365 13.3758 9.07281 13.504 9.09844 13.6322L4.875 17.8556ZM24.9759 20.3412C24.8172 20.1633 24.6445 19.9938 24.4578 19.8328C24.2711 19.6717 24.0689 19.5175 23.8509 19.37L26.125 17.0959V19.2112L24.9759 20.3412ZM21.9159 17.7547C21.8661 17.6522 21.8104 17.5548 21.7488 17.4625C21.6871 17.3704 21.6234 17.2795 21.5578 17.1897C21.4745 17.0792 21.3863 16.9687 21.2931 16.8581C21.2002 16.7475 21.1041 16.6473 21.0047 16.5575L26.125 11.4181V13.5647L21.9159 17.7547ZM15.5 17.375C14.2933 17.375 13.2625 16.9475 12.4075 16.0925C11.5525 15.2375 11.125 14.2066 11.125 13C11.125 11.7933 11.5525 10.7625 12.4075 9.90747C13.2625 9.05247 14.2933 8.62497 15.5 8.62497C16.7067 8.62497 17.7375 9.05247 18.5925 9.90747C19.4475 10.7625 19.875 11.7933 19.875 13C19.875 14.2066 19.4475 15.2375 18.5925 16.0925C17.7375 16.9475 16.7067 17.375 15.5 17.375ZM15.5 15.5C16.1875 15.5 16.776 15.2552 17.2656 14.7656C17.7552 14.276 18 13.6875 18 13C18 12.3125 17.7552 11.7239 17.2656 11.2343C16.776 10.7448 16.1875 10.5 15.5 10.5C14.8125 10.5 14.224 10.7448 13.7344 11.2343C13.2448 11.7239 13 12.3125 13 13C13 13.6875 13.2448 14.276 13.7344 14.7656C14.224 15.2552 14.8125 15.5 15.5 15.5ZM6.125 26.125V24.1347C6.125 23.4903 6.29208 22.9122 6.62625 22.4003C6.96042 21.8882 7.40396 21.492 7.95687 21.2115C8.99521 20.6938 10.1502 20.2615 11.4219 19.9147C12.6935 19.5678 14.0529 19.3943 15.5 19.3943C16.9471 19.3943 18.3065 19.5678 19.5781 19.9147C20.8498 20.2615 22.0048 20.6938 23.0431 21.2115C23.5881 21.484 24.0297 21.8803 24.3678 22.4003C24.7059 22.9203 24.875 23.4984 24.875 24.1347V26.125H6.125ZM8.01937 24.25H22.9806C22.955 23.8862 22.8821 23.6006 22.7619 23.3931C22.6419 23.1854 22.4424 23.0159 22.1634 22.8847C21.3974 22.5097 20.4543 22.1466 19.3341 21.7956C18.2139 21.4446 16.9358 21.269 15.5 21.269C14.0642 21.269 12.7861 21.4446 11.6659 21.7956C10.5457 22.1466 9.6026 22.5097 8.83656 22.8847C8.56573 23.0159 8.36823 23.1885 8.24406 23.4025C8.1199 23.6164 8.045 23.8989 8.01937 24.25Z" fill="white"/>
</g>
</svg>
