<svg width="31" height="31" viewBox="0 0 31 31" fill="none" xmlns="http://www.w3.org/2000/svg">
<mask id="mask0_833_352" style="mask-type:alpha" maskUnits="userSpaceOnUse" x="0" y="0" width="31" height="31">
<rect x="0.5" y="0.5" width="30" height="30" fill="#D9D9D9"/>
</mask>
<g mask="url(#mask0_833_352)">
<path d="M15.2356 26.464C15.359 26.464 15.4844 26.4351 15.6119 26.3774C15.7392 26.3197 15.8397 26.254 15.9134 26.1802L25.9109 16.1827C26.193 15.9006 26.4054 15.5993 26.5481 15.2787C26.6906 14.9582 26.7619 14.6218 26.7619 14.2693C26.7619 13.9039 26.6906 13.5521 26.5481 13.214C26.4054 12.8756 26.193 12.5719 25.9109 12.3027L20.9109 7.30273C20.6418 7.02064 20.3501 6.81429 20.0359 6.68366C19.722 6.55325 19.3823 6.48804 19.0169 6.48804C18.6644 6.48804 18.3258 6.55325 18.0012 6.68366C17.6767 6.81429 17.3774 7.02064 17.1034 7.30273L16.3869 8.01929L18.6994 10.3508C18.9798 10.6186 19.187 10.9239 19.3209 11.2668C19.4547 11.6097 19.5216 11.9654 19.5216 12.334C19.5216 13.0969 19.2668 13.7331 18.7572 14.2427C18.2476 14.7523 17.6113 15.0071 16.8484 15.0071C16.4799 15.0071 16.1229 14.9462 15.7775 14.8243C15.4323 14.7026 15.1258 14.5079 14.8581 14.2402L12.4903 11.8918L7.0578 17.3243C6.96322 17.4189 6.89228 17.5247 6.84499 17.6418C6.7977 17.7587 6.77405 17.8789 6.77405 18.0024C6.77405 18.233 6.8526 18.4301 7.00968 18.5937C7.16676 18.7572 7.36062 18.839 7.59124 18.839C7.71478 18.839 7.8402 18.8101 7.96749 18.7524C8.09499 18.6947 8.19562 18.629 8.26937 18.5552L12.375 14.4496L13.6922 15.7668L9.60562 19.8724C9.51124 19.967 9.44041 20.0728 9.39312 20.1899C9.34582 20.3068 9.32218 20.427 9.32218 20.5505C9.32218 20.7732 9.4027 20.9651 9.56374 21.1262C9.72478 21.2872 9.91666 21.3677 10.1394 21.3677C10.2629 21.3677 10.3883 21.3389 10.5156 21.2812C10.6431 21.2235 10.7436 21.1577 10.8172 21.084L15.0672 16.8534L16.3847 18.1705L12.1537 22.4205C12.0673 22.4943 11.9984 22.5948 11.9472 22.7221C11.8959 22.8496 11.8703 22.975 11.8703 23.0984C11.8703 23.3213 11.9508 23.5132 12.1119 23.6743C12.2729 23.8353 12.4648 23.9158 12.6875 23.9158C12.8108 23.9158 12.931 23.8922 13.0481 23.8449C13.165 23.7976 13.2707 23.7267 13.3653 23.6321L17.6153 19.4015L18.9328 20.7187L14.6828 24.9687C14.5882 25.0632 14.5173 25.173 14.47 25.298C14.4227 25.423 14.3991 25.5432 14.3991 25.6587C14.3991 25.8893 14.4848 26.0812 14.6562 26.2343C14.8277 26.3874 15.0208 26.464 15.2356 26.464ZM15.2162 28.3387C14.5096 28.3387 13.8934 28.0936 13.3678 27.6033C12.8422 27.1129 12.5674 26.5023 12.5434 25.7715C11.8351 25.7234 11.2433 25.4718 10.7681 25.0168C10.2929 24.5616 10.0353 23.9638 9.9953 23.2234C9.25489 23.1754 8.65635 22.9167 8.19968 22.4471C7.7428 21.9775 7.49833 21.3869 7.46624 20.6752C6.7227 20.6273 6.10895 20.3577 5.62499 19.8665C5.14103 19.3752 4.89905 18.7539 4.89905 18.0024C4.89905 17.6339 4.96916 17.2728 5.10937 16.9193C5.24958 16.566 5.45353 16.2555 5.72124 15.988L12.4903 9.23804L16.1516 12.899C16.2251 12.9854 16.3216 13.0544 16.4409 13.1059C16.5605 13.1571 16.69 13.1827 16.8294 13.1827C17.0569 13.1827 17.2531 13.1074 17.4181 12.9568C17.5833 12.8062 17.6659 12.609 17.6659 12.3652C17.6659 12.2259 17.6403 12.0965 17.5891 11.9771C17.5376 11.8577 17.4686 11.7612 17.3822 11.6874L12.9975 7.30273C12.7283 7.02064 12.4347 6.81429 12.1166 6.68366C11.7984 6.55325 11.4567 6.48804 11.0912 6.48804C10.7387 6.48804 10.4043 6.55325 10.0878 6.68366C9.77114 6.81429 9.47187 7.02064 9.18999 7.30273L5.08405 11.4277C4.85655 11.6552 4.6703 11.9241 4.5253 12.2343C4.3803 12.5443 4.29499 12.8604 4.26937 13.1827C4.24353 13.4488 4.25551 13.712 4.3053 13.9724C4.35489 14.2328 4.44218 14.4776 4.56718 14.7068L3.18749 16.0865C2.90541 15.6794 2.69312 15.2235 2.55062 14.7187C2.40791 14.2139 2.34937 13.7019 2.37499 13.1827C2.40062 12.6073 2.53041 12.0516 2.76437 11.5155C2.99833 10.9795 3.32603 10.5007 3.74749 10.0793L7.84124 5.98554C8.30937 5.53033 8.81864 5.18783 9.36905 4.95804C9.91947 4.72804 10.4976 4.61304 11.1034 4.61304C11.7091 4.61304 12.2851 4.72804 12.8316 4.95804C13.3782 5.18783 13.8791 5.53033 14.3341 5.98554L15.0506 6.70179L15.7669 5.98554C16.2348 5.53033 16.742 5.18783 17.2884 4.95804C17.8349 4.72804 18.411 4.61304 19.0169 4.61304C19.6227 4.61304 20.2008 4.72804 20.7512 4.95804C21.3017 5.18783 21.8045 5.53033 22.2597 5.98554L27.2284 10.9543C27.6834 11.4095 28.032 11.9275 28.2741 12.5084C28.5159 13.0892 28.6369 13.6825 28.6369 14.2883C28.6369 14.8942 28.5159 15.4703 28.2741 16.0168C28.032 16.5632 27.6834 17.064 27.2284 17.519L17.2306 27.4974C16.955 27.773 16.6446 27.9822 16.2994 28.1249C15.9539 28.2674 15.5929 28.3387 15.2162 28.3387Z" fill="white"/>
</g>
</svg>
