<svg width="31" height="31" viewBox="0 0 31 31" fill="none" xmlns="http://www.w3.org/2000/svg">
<mask id="mask0_833_367" style="mask-type:alpha" maskUnits="userSpaceOnUse" x="0" y="0" width="31" height="31">
<rect x="0.5" y="0.5" width="30" height="30" fill="#D9D9D9"/>
</mask>
<g mask="url(#mask0_833_367)">
<path d="M3.45703 26.2213V4.34631H15.3317V9.34631H27.5433V26.2213H3.45703ZM5.33172 24.3463H13.457V21.2213H5.33172V24.3463ZM5.33172 19.3463H13.457V16.2213H5.33172V19.3463ZM5.33172 14.3463H13.457V11.2213H5.33172V14.3463ZM5.33172 9.34631H13.457V6.22131H5.33172V9.34631ZM15.3317 24.3463H25.6686V11.2213H15.3317V24.3463ZM18.0723 16.2213V14.3463H22.6877V16.2213H18.0723ZM18.0723 21.2213V19.3463H22.6877V21.2213H18.0723Z" fill="white"/>
</g>
</svg>
