<svg width="31" height="31" viewBox="0 0 31 31" fill="none" xmlns="http://www.w3.org/2000/svg">
<mask id="mask0_833_397" style="mask-type:alpha" maskUnits="userSpaceOnUse" x="0" y="0" width="31" height="31">
<rect x="0.5" y="0.5" width="30" height="30" fill="#D9D9D9"/>
</mask>
<g mask="url(#mask0_833_397)">
<path d="M15.4993 28.8919C14.2911 28.8919 13.27 28.4747 12.4358 27.6403C11.6017 26.8061 11.1846 25.785 11.1846 24.5769C11.1846 23.5417 11.5035 22.6367 12.1414 21.8619C12.7792 21.0869 13.586 20.5897 14.5621 20.3703V17.4375H7.37457V12.69H4.30957V4.685H12.3146V12.69H9.24957V15.5625H21.7496V12.5819C20.7735 12.3623 19.9667 11.8651 19.3289 11.0903C18.691 10.3153 18.3721 9.41021 18.3721 8.375C18.3721 7.16687 18.7893 6.14573 19.6236 5.31156C20.4578 4.47718 21.4789 4.06 22.6871 4.06C23.8954 4.06 24.9167 4.47718 25.7508 5.31156C26.585 6.14573 27.0021 7.16687 27.0021 8.375C27.0021 9.41021 26.6831 10.3153 26.0452 11.0903C25.4073 11.8651 24.6004 12.3623 23.6246 12.5819V17.4375H16.4371V20.3703C17.4131 20.5897 18.22 21.0869 18.8577 21.8619C19.4956 22.6367 19.8146 23.5417 19.8146 24.5769C19.8146 25.785 19.3974 26.8061 18.563 27.6403C17.7288 28.4747 16.7076 28.8919 15.4993 28.8919ZM22.6896 10.815C23.3642 10.815 23.9391 10.5766 24.4143 10.0997C24.8895 9.62281 25.1271 9.04708 25.1271 8.3725C25.1271 7.69791 24.8886 7.12302 24.4118 6.64781C23.9349 6.1726 23.3592 5.935 22.6846 5.935C22.01 5.935 21.4351 6.17344 20.9599 6.65031C20.4847 7.12719 20.2471 7.70292 20.2471 8.3775C20.2471 9.05208 20.4855 9.62698 20.9624 10.1022C21.4393 10.5774 22.015 10.815 22.6896 10.815ZM6.18457 10.815H10.4396V6.56H6.18457V10.815ZM15.5021 27.0169C16.1767 27.0169 16.7516 26.7784 17.2268 26.3016C17.702 25.8247 17.9396 25.249 17.9396 24.5744C17.9396 23.8998 17.7011 23.3249 17.2243 22.8497C16.7474 22.3745 16.1717 22.1369 15.4971 22.1369C14.8225 22.1369 14.2476 22.3753 13.7724 22.8522C13.2972 23.3291 13.0596 23.9048 13.0596 24.5794C13.0596 25.254 13.298 25.8289 13.7749 26.3041C14.2518 26.7793 14.8275 27.0169 15.5021 27.0169Z" fill="white"/>
</g>
</svg>
