<svg width="26" height="21" viewBox="0 0 26 21" fill="none" xmlns="http://www.w3.org/2000/svg">
<path d="M19.9272 12.3254C19.7699 12.3262 19.6193 12.3862 19.508 12.4924C19.3968 12.5987 19.3339 12.7424 19.333 12.8926V15.5211C15.3553 18.8208 10.648 18.8177 6.65711 15.5211V12.8832C6.65625 12.733 6.59337 12.5892 6.48212 12.483C6.37088 12.3768 6.22025 12.3167 6.06293 12.3159C5.90561 12.3167 5.75498 12.3768 5.64374 12.483C5.5325 12.5892 5.46962 12.733 5.46875 12.8832V15.7764C5.46883 15.8561 5.4865 15.9349 5.52063 16.0077C5.55476 16.0804 5.60456 16.1455 5.66681 16.1987C7.97752 18.1716 10.483 19.158 13.0017 19.158C15.5203 19.158 18.0357 18.1716 20.3266 16.1987C20.3881 16.1451 20.4372 16.0799 20.4707 16.0072C20.5043 15.9344 20.5215 15.8558 20.5214 15.7764V12.8832C20.5179 12.7347 20.4539 12.5932 20.343 12.4891C20.232 12.3849 20.0828 12.3261 19.9272 12.3254Z" fill="white"/>
<path d="M25.9141 7.08832C25.9006 7.06178 25.8843 7.03673 25.8655 7.01362C25.8176 6.94642 25.7582 6.88824 25.6899 6.84179C25.6899 6.84179 25.6675 6.81565 25.6488 6.80445L13.3213 0.0812046C13.2226 0.0279176 13.1122 0 13 0C12.8878 0 12.7774 0.0279176 12.6787 0.0812046L0.351153 6.80445C0.24498 6.86219 0.156339 6.94747 0.0945445 7.05132C0.0327503 7.15518 8.7267e-05 7.27374 2.29263e-06 7.39458C-0.000314397 7.51551 0.0321837 7.63426 0.0940201 7.73819C0.155856 7.84211 0.244717 7.92732 0.351153 7.98474L12.6787 14.708C12.7772 14.7621 12.8877 14.7903 13 14.7902C13.1124 14.7914 13.2232 14.763 13.3213 14.708L24.6552 8.52634V17.1172C24.6552 17.2955 24.726 17.4665 24.8521 17.5926C24.9782 17.7186 25.1493 17.7895 25.3276 17.7895C25.4159 17.7895 25.5033 17.7721 25.5849 17.7383C25.6665 17.7045 25.7406 17.655 25.8031 17.5926C25.8655 17.5301 25.915 17.456 25.9488 17.3744C25.9826 17.2929 26 17.2054 26 17.1172V7.39458C25.9985 7.28676 25.9689 7.18121 25.9141 7.08832ZM13 13.3521L2.07701 7.37591L13 1.41837L23.923 7.37591L13 13.3521Z" fill="white"/>
<path d="M25.317 17.79C25.1359 17.7911 24.9624 17.8701 24.8343 18.0099C24.7062 18.1496 24.6338 18.3388 24.6328 18.5364V19.7805C24.6328 19.9784 24.7049 20.1683 24.8332 20.3083C24.9615 20.4482 25.1356 20.5269 25.317 20.5269C25.4985 20.5269 25.6725 20.4482 25.8008 20.3083C25.9291 20.1683 26.0012 19.9784 26.0012 19.7805V18.5364C26.0002 18.3388 25.9278 18.1496 25.7997 18.0099C25.6716 17.8701 25.4982 17.7911 25.317 17.79Z" fill="white"/>
</svg>
