<svg width="26" height="26" viewBox="0 0 26 26" fill="none" xmlns="http://www.w3.org/2000/svg">
<g clip-path="url(#clip0_1200_2695)">
<path d="M14.1207 24.6552H6.64942C6.43172 24.6523 6.22381 24.5642 6.07021 24.4099C5.91661 24.2556 5.82951 24.0473 5.82758 23.8296V2.16293C5.82758 2.05354 5.84913 1.94521 5.891 1.84414C5.93286 1.74307 5.99422 1.65124 6.07158 1.57388C6.14893 1.49653 6.24076 1.43517 6.34183 1.3933C6.4429 1.35144 6.55123 1.32988 6.66063 1.32988H9.64913C10.1871 1.32988 10.6578 2.07702 10.6578 2.89885C10.6578 3.72069 10.1871 4.46782 9.64913 4.46782C9.4708 4.46782 9.29977 4.53866 9.17366 4.66476C9.04756 4.79087 8.97672 4.9619 8.97672 5.14023C8.97672 5.31857 9.04756 5.4896 9.17366 5.6157C9.29977 5.74181 9.4708 5.81264 9.64913 5.81264H22.425V14.117C22.425 14.2953 22.4958 14.4663 22.6219 14.5924C22.748 14.7185 22.9191 14.7894 23.0974 14.7894C23.2757 14.7894 23.4468 14.7185 23.5729 14.5924C23.699 14.4663 23.7698 14.2953 23.7698 14.117V5.81264C25.0138 5.74167 26.0112 4.47156 26.0112 2.9138C26.0112 1.35604 24.954 0 23.6578 0H6.64942C6.07664 0.0039024 5.52836 0.232924 5.12298 0.637604C4.71761 1.04228 4.48765 1.59016 4.48276 2.16293V20.1575H0.672409C0.494377 20.1585 0.323912 20.2296 0.198022 20.3555C0.0721322 20.4814 0.000980919 20.6519 0 20.8299V23.6316C0.000987919 24.2555 0.249256 24.8535 0.690399 25.2947C1.13154 25.7358 1.72957 25.9841 2.35344 25.9851H14.1207C14.299 25.9851 14.4701 25.9142 14.5962 25.7881C14.7223 25.662 14.7931 25.491 14.7931 25.3126C14.7931 25.1343 14.7223 24.9633 14.5962 24.8372C14.4701 24.7111 14.299 24.6402 14.1207 24.6402V24.6552ZM11.6215 1.34483H23.6465C24.1845 1.34483 24.6552 2.09196 24.6552 2.9138C24.6552 3.73564 24.1845 4.48276 23.6465 4.48276H11.6215C11.8649 3.99554 11.9916 3.45841 11.9916 2.9138C11.9916 2.36919 11.8649 1.83205 11.6215 1.34483ZM2.35344 24.6552C2.08594 24.6552 1.8294 24.5489 1.64024 24.3598C1.45109 24.1706 1.34482 23.9141 1.34482 23.6466V21.5172H4.48276V23.8296C4.48255 24.1157 4.53971 24.399 4.65086 24.6627L2.35344 24.6552Z" fill="white"/>
<path d="M21.4073 16.8105C20.4986 16.8105 19.6102 17.08 18.8546 17.5849C18.099 18.0898 17.51 18.8074 17.1623 19.647C16.8145 20.4866 16.7235 21.4105 16.9008 22.3018C17.0781 23.1931 17.5157 24.0118 18.1583 24.6544C18.8009 25.297 19.6196 25.7346 20.5109 25.9119C21.4022 26.0892 22.3261 25.9982 23.1657 25.6504C24.0053 25.3027 24.7229 24.7137 25.2278 23.9581C25.7327 23.2025 26.0022 22.3142 26.0022 21.4054C26.0002 20.1874 25.5154 19.0198 24.6542 18.1585C23.7929 17.2973 22.6253 16.8125 21.4073 16.8105ZM21.4073 24.6554C20.7645 24.6554 20.1362 24.4648 19.6017 24.1076C19.0673 23.7505 18.6507 23.243 18.4047 22.6491C18.1587 22.0552 18.0944 21.4018 18.2198 20.7713C18.3452 20.1409 18.6547 19.5618 19.1092 19.1073C19.5638 18.6528 20.1428 18.3432 20.7733 18.2178C21.4037 18.0924 22.0572 18.1568 22.6511 18.4028C23.2449 18.6488 23.7525 19.0653 24.1096 19.5998C24.4667 20.1342 24.6573 20.7626 24.6573 21.4054C24.6563 22.267 24.3136 23.0931 23.7043 23.7024C23.0951 24.3117 22.269 24.6544 21.4073 24.6554Z" fill="white"/>
<path d="M10.7618 13.4482H9.64116C9.46282 13.4482 9.29179 13.5191 9.16569 13.6452C9.03959 13.7713 8.96875 13.9423 8.96875 14.1207C8.96875 14.299 9.03959 14.47 9.16569 14.5961C9.29179 14.7222 9.46282 14.7931 9.64116 14.7931H10.7618C10.9402 14.7931 11.1112 14.7222 11.2373 14.5961C11.3634 14.47 11.4343 14.299 11.4343 14.1207C11.4343 13.9423 11.3634 13.7713 11.2373 13.6452C11.1112 13.5191 10.9402 13.4482 10.7618 13.4482Z" fill="white"/>
<path d="M14.1177 14.7931H18.6005C18.7788 14.7931 18.9498 14.7222 19.076 14.5961C19.2021 14.47 19.2729 14.299 19.2729 14.1207C19.2729 13.9423 19.2021 13.7713 19.076 13.6452C18.9498 13.5191 18.7788 13.4482 18.6005 13.4482H14.1177C13.9394 13.4482 13.7684 13.5191 13.6423 13.6452C13.5161 13.7713 13.4453 13.9423 13.4453 14.1207C13.4453 14.299 13.5161 14.47 13.6423 14.5961C13.7684 14.7222 13.9394 14.7931 14.1177 14.7931Z" fill="white"/>
<path d="M16.3583 10.3102C16.5366 10.3102 16.7077 10.2393 16.8338 10.1132C16.9599 9.98712 17.0307 9.81609 17.0307 9.63775C17.0307 9.45942 16.9599 9.28838 16.8338 9.16228C16.7077 9.03618 16.5366 8.96533 16.3583 8.96533H11.8755C11.6972 8.96533 11.5262 9.03618 11.4001 9.16228C11.274 9.28838 11.2031 9.45942 11.2031 9.63775C11.2031 9.81609 11.274 9.98712 11.4001 10.1132C11.5262 10.2393 11.6972 10.3102 11.8755 10.3102H16.3583Z" fill="white"/>
<path d="M14.1239 17.9312H9.64116C9.46282 17.9312 9.29179 18.002 9.16569 18.1281C9.03959 18.2542 8.96875 18.4252 8.96875 18.6036C8.96875 18.7819 9.03959 18.9529 9.16569 19.079C9.29179 19.2051 9.46282 19.276 9.64116 19.276H14.1239C14.3023 19.276 14.4733 19.2051 14.5994 19.079C14.7255 18.9529 14.7963 18.7819 14.7963 18.6036C14.7963 18.4252 14.7255 18.2542 14.5994 18.1281C14.4733 18.002 14.3023 17.9312 14.1239 17.9312Z" fill="white"/>
</g>
<defs>
<clipPath id="clip0_1200_2695">
<rect width="26" height="26" fill="white"/>
</clipPath>
</defs>
</svg>
