<svg width="26" height="24" viewBox="0 0 26 24" fill="none" xmlns="http://www.w3.org/2000/svg">
<path d="M23.972 17.7935C23.7976 17.7945 23.6307 17.8613 23.5075 17.9795C23.3842 18.0978 23.3145 18.2579 23.3136 18.4251V21.7374C23.3136 21.8081 23.2843 21.876 23.2321 21.926C23.18 21.976 23.1093 22.0041 23.0356 22.0041H2.96196C2.88824 22.0041 2.81752 21.976 2.76539 21.926C2.71326 21.876 2.68397 21.8081 2.68397 21.7374V18.4216C2.68301 18.2544 2.61333 18.0943 2.49007 17.976C2.3668 17.8578 2.19991 17.791 2.02559 17.79C1.85127 17.791 1.68436 17.8578 1.56109 17.976C1.43783 18.0943 1.36815 18.2544 1.36719 18.4216V21.7339C1.36815 22.1394 1.53649 22.5279 1.83535 22.8146C2.13422 23.1013 2.5393 23.2628 2.96196 23.2637H23.0356C23.4582 23.2628 23.8633 23.1013 24.1622 22.8146C24.4611 22.5279 24.6294 22.1394 24.6303 21.7339V18.4216C24.6284 18.255 24.5583 18.0958 24.4352 17.9783C24.312 17.8608 24.1456 17.7945 23.972 17.7935Z" fill="white"/>
<path d="M25.3276 4.39337H21.5172V2.51155C21.5163 1.84574 21.2459 1.20748 20.7656 0.736686C20.2852 0.26589 19.634 0.000968445 18.9546 0H7.04541C6.36606 0.000968445 5.71481 0.26589 5.23443 0.736686C4.75406 1.20748 4.48375 1.84574 4.48276 2.51155V4.39337H0.672421C0.494388 4.39433 0.323924 4.46407 0.198034 4.58745C0.0721436 4.71083 0.000980919 4.8779 0 5.05238V14.9375C0.000980919 15.1119 0.0721436 15.279 0.198034 15.4024C0.323924 15.5258 0.494388 15.5955 0.672421 15.5965H8.96552V17.1305C8.9665 17.305 9.03766 17.472 9.16355 17.5954C9.28944 17.7188 9.4599 17.7885 9.63793 17.7895H16.3621C16.5401 17.7885 16.7106 17.7188 16.8365 17.5954C16.9623 17.472 17.0335 17.305 17.0345 17.1305V15.5928H25.3276C25.5056 15.5918 25.6761 15.5221 25.802 15.3987C25.9279 15.2753 25.999 15.1083 26 14.9338V5.04871C25.998 4.87487 25.9265 4.70874 25.8007 4.58614C25.6749 4.46355 25.505 4.39432 25.3276 4.39337ZM5.82759 2.51155C5.82759 2.195 5.95589 1.89142 6.18428 1.66759C6.41266 1.44376 6.72242 1.31801 7.04541 1.31801H18.9546C19.2776 1.31801 19.5873 1.44376 19.8157 1.66759C20.0441 1.89142 20.1724 2.195 20.1724 2.51155V4.39337H5.82759V2.51155ZM15.6897 16.4751H10.3103V13.3998H15.6897V16.4751ZM24.6552 14.2784H17.0345V12.7371C17.0335 12.5626 16.9623 12.3956 16.8365 12.2722C16.7106 12.1488 16.5401 12.0791 16.3621 12.0781H9.63793C9.4599 12.0791 9.28944 12.1488 9.16355 12.2722C9.03766 12.3956 8.9665 12.5626 8.96552 12.7371V14.2748H1.34483V5.70772H4.48276V8.34374C4.48375 8.51822 4.5549 8.68529 4.68079 8.80867C4.80668 8.93205 4.97714 9.00178 5.15517 9.00274C5.33321 9.00178 5.50367 8.93205 5.62956 8.80867C5.75545 8.68529 5.82661 8.51822 5.82759 8.34374V5.70772H20.1724V8.34374C20.1734 8.51822 20.2446 8.68529 20.3704 8.80867C20.4963 8.93205 20.6668 9.00178 20.8448 9.00274C21.0229 9.00178 21.1933 8.93205 21.3192 8.80867C21.4451 8.68529 21.5163 8.51822 21.5172 8.34374V5.70772H24.6552V14.2784Z" fill="white"/>
</svg>
